<?xml version="1.0" encoding="UTF-8"?>
<svg width="1160px" height="1160px" viewBox="0 0 1160 1160" version="1.1" xmlns="http://www.w3.org/2000/svg" xmlns:xlink="http://www.w3.org/1999/xlink" style="background: #F2F2F2;">
    <!-- Generator: Sketch 49.3 (51167) - http://www.bohemiancoding.com/sketch -->
    <title>default-user</title>
    <desc>Created with Sketch.</desc>
    <defs></defs>
    <g id="default-user" stroke="none" stroke-width="1" fill="none" fill-rule="evenodd">
        <g id="zebra-big" transform="translate(112.000000, 85.000000)" fill="#E1E1E1" fill-rule="nonzero">
            <path d="M124.783813,682.209275 L348.46877,682.209275 L348.46877,734.781564 L211.568687,734.781564 L173.6767,734.781564 C168.426826,734.781564 161.393584,735.967497 156.569079,733.524719 C150.945174,730.67848 146.767277,724.000577 143.322773,718.935298 C135.685704,707.70928 127.100113,695.881738 124.783813,682.209275 Z M464.589377,227.397843 L464.589377,720.110227 C478.358836,720.110227 493.755206,720.462339 507.370653,718.520832 C514.395338,717.519514 521.142556,715.027832 528.150129,713.99717 L528.150129,211.503895 L528.150129,73.3488102 L528.150129,35.4478576 C528.150129,29.8067287 529.24533,22.8390665 527.767543,17.3642127 C527.012148,14.5693231 524.58706,12.3136051 523.260841,9.77301871 C513.351475,7.31067941 506.01143,0.219533434 495.147431,0.0104668893 C490.414599,-0.0800063524 485.49353,0.323455401 482.958434,4.95470729 C479.696056,10.9124925 482.822756,18.67852 484.892148,24.4443552 C489.360958,36.8942068 492.598889,49.6301495 496.198628,62.3453078 C504.767106,92.6208333 511.055954,123.467318 518.371552,154.041161 C520.319934,162.18253 521.904063,170.332457 523.731435,178.493388 C524.452605,181.712524 525.959728,186.080915 524.858416,189.337951 C523.109273,194.51082 514.24377,197.794754 509.833632,200.286436 C494.938414,208.698002 480.506456,221.363034 464.589377,227.397843 Z M715.165422,189.496891 C709.407062,187.555384 705.275613,183.629579 700.497556,179.980084 C698.294931,178.297771 695.311243,175.523665 692.263993,176.104406 C689.913468,176.550659 688.702147,179.121811 687.669284,180.992406 C684.807828,186.171388 682.25562,191.569217 679.548176,196.832559 C672.804625,209.942621 665.528141,222.773927 658.938602,235.956123 C655.065063,243.706256 651.867468,253.197389 645.493058,259.185739 L645.493058,173.602943 L645.493058,149.150715 C645.493058,144.918035 646.250898,139.741498 644.755998,135.703213 C642.132894,128.62307 632.702679,122.688515 627.158225,117.881207 C618.781652,110.620118 610.600649,103.14874 602.711782,95.3607054 C596.592837,89.3210052 589.746611,81.8838602 581.932305,78.2392557 L581.932305,694.435388 C591.086276,692.849661 598.316311,686.698704 606.378748,682.441571 C618.748649,675.909158 633.961671,669.490448 643.245207,658.521179 C650.004649,650.532637 652.413846,638.707539 657.559822,629.636986 C673.19699,602.074435 687.736512,573.900578 701.448522,545.276801 C715.782694,515.355833 733.04555,486.867765 748.107004,457.248782 C789.695294,375.460971 832.216215,294.240452 874.382663,212.726507 L912.27465,139.369824 C918.624614,127.086248 926.209123,115.500783 931.516446,102.691483 C913.768328,103.45317 899.882748,109.298475 885.068204,118.585431 C888.63005,109.650587 896.632594,98.5468306 903.476375,91.7674505 C907.392696,87.886882 912.880922,85.5284647 915.626258,80.6844784 C903.263691,80.9742373 890.215402,85.7448669 878.748798,90.0619077 C874.130865,91.800461 868.539963,92.8849173 864.703094,96.1529575 C856.865564,102.829638 853.11548,115.7991 848.355757,124.698488 C837.067612,145.803205 826.399184,167.104763 815.309055,188.321961 C775.438128,264.600685 736.6404,341.505386 695.703608,417.252273 C683.855639,439.174918 673.428009,462.064648 661.747498,484.146232 C657.114897,492.903797 653.292696,504.761905 645.493058,511.043682 L645.493058,436.464388 C645.493058,424.998739 643.251319,410.778546 646.76794,399.786047 C650.350566,388.585704 657.122231,379.461356 662.557898,369.220763 C672.869408,349.791023 683.050129,330.19623 692.893489,310.535417 C707.348671,281.663449 722.390568,252.836718 737.613368,224.385329 C748.274462,204.460431 757.303756,183.678483 768.287543,163.930864 C778.803181,145.024402 788.021935,125.498076 798.02053,106.359317 C802.918375,96.981888 811.049262,87.5274343 812.951195,77.0166443 C803.376746,78.5106754 797.359254,85.1519004 789.727074,90.4653694 C789.519279,85.6213832 788.063494,80.6147896 788.972901,75.7940329 C790.994622,65.0631729 799.219628,56.7836487 808.061907,51.0972832 C812.628502,48.1605706 817.765922,46.759458 821.507451,42.7835258 C793.266919,42.7871937 755.992205,55.8715806 740.103239,80.8923224 C728.313941,99.4576761 726.640582,123.055298 723.35987,144.26027 C721.019123,159.383973 717.088134,174.293718 715.165422,189.496891 Z M745.723476,707.884113 C751.014909,706.185906 752.512253,701.634124 754.890892,696.880611 C758.595751,689.476477 762.527961,682.190935 766.400278,674.873606 C777.293613,654.290944 787.254316,633.148325 798.021752,612.521649 C800.685192,607.417246 804.387606,602.968164 806.992375,597.830751 C810.870803,590.182094 813.781152,582.140979 818.004275,574.619474 C830.090597,553.096623 840.334879,530.483203 851.802706,508.598459 C890.359636,435.013149 928.398302,361.083061 966.702212,287.305801 C983.900285,254.179146 1001.9112,221.53909 1018.88192,188.274279 C1026.79768,172.759341 1038.88278,156.47049 1042.74776,139.369824 C1030.68833,139.369824 1018.84403,139.424842 1007.30042,143.510809 C999.535008,146.260462 992.391757,151.150908 985.298622,155.263772 C982.114472,141.406695 992.28297,131.634362 1004.85578,127.613193 C1010.06287,125.947997 1015.54865,126.238978 1020.74596,124.698488 L1020.74596,122.253265 C1011.83524,117.384827 994.338916,109.946459 984.65568,117.287018 C981.333408,119.805597 979.798172,124.785293 977.93413,128.366322 C973.279528,137.309724 968.822941,146.347268 964.15367,155.263772 C946.854145,188.303622 929.258817,220.932674 912.570452,254.295294 C861.201141,356.990981 805.032992,457.273234 753.66857,559.948137 C740.523717,586.223278 726.19199,611.912788 713.022691,638.195265 C709.729755,644.765579 706.236358,651.236861 702.845637,657.757047 C701.380072,660.575166 699.21045,663.965468 699.792276,667.308087 C700.635678,672.149628 709.290941,676.015525 712.960352,678.755397 C724.458737,687.34302 737.367682,696.021115 745.723476,707.884113 Z M823.952095,810.583469 C835.342915,804.117077 838.131032,785.843928 844.624008,775.335583 C855.950045,757.002525 864.870552,736.873452 874.584346,717.665004 C884.503491,698.051873 895.028907,678.607461 904.959052,658.997998 C957.641138,554.962328 1014.01586,452.793586 1066.30925,348.436369 C1073.19214,334.702776 1081.09079,321.414213 1088.49439,307.985049 C1097.73148,291.231606 1104.94441,273.575875 1113.9627,256.758856 C1121.54721,242.612019 1132.8488,227.167992 1136.86657,211.503895 C1112.0901,222.548967 1097.10565,250.516202 1073.30582,262.853573 C1075.01829,255.706187 1078.90039,250.617679 1082.53924,244.40559 C1088.83664,233.653946 1095.0876,223.503826 1103.17815,213.950341 C1107.1837,209.220057 1112.91395,205.751509 1116.08709,200.500393 C1102.57188,200.462492 1085.57427,195.900929 1073.24592,203.536137 C1062.58727,210.137016 1057.38385,228.798956 1051.27346,239.416113 C1032.10623,272.723715 1015.66844,308.106088 998.119559,342.323313 C972.679367,391.928324 946.108528,440.914694 920.252747,490.259289 C895.153584,538.157535 871.864679,586.905495 846.265586,634.527431 C831.051342,662.829662 816.76973,691.602598 801.919738,720.110227 L790.321123,742.117232 C788.642874,745.355929 785.414722,749.251169 785.5614,753.073052 C785.760639,758.271596 792.900223,764.127905 795.727454,768.323907 C804.859423,781.881444 817.588686,795.552685 823.952095,810.583469 Z M899.73607,924.286327 C925.041805,872.355909 952.976756,821.374237 979.793283,770.218954 C1015.71733,701.694032 1051.18301,632.820666 1085.8664,563.615971 C1106.02616,523.390834 1128.32009,484.118112 1148.52141,443.908869 C1173.05097,395.086329 1199.58392,347.164854 1224.11593,298.419338 C1230.56979,285.608816 1237.75704,273.261664 1244.2598,260.40835 C1247.80453,253.412568 1252.42491,246.034109 1254.2095,238.401346 C1238.16041,239.711985 1218.3099,247.14424 1204.80324,255.822335 C1198.5205,259.856953 1194.0468,265.727933 1188.2041,270.189241 C1188.76026,258.026703 1194.15681,244.13417 1203.01865,235.655361 C1207.82237,231.070568 1217.80875,227.350162 1219.98448,221.284786 C1211.97827,221.284786 1198.87497,219.547456 1192.02997,224.467244 C1183.13513,230.856611 1179.43027,247.526917 1173.84671,256.740516 C1168.34014,265.825741 1164.49594,275.403679 1159.47953,284.751766 C1145.51328,310.777494 1132.19608,336.974388 1118.43395,363.107706 C1088.29271,420.341812 1059.66715,478.476983 1029.25944,535.49591 C1011.02361,569.689905 992.040951,603.783645 974.765871,638.404332 C963.326158,661.33074 950.713016,683.796224 939.179184,706.661502 C927.84459,729.133099 917.387624,752.053395 904.979832,773.905128 C893.442333,794.224929 884.133127,815.807687 872.831536,836.258308 C868.967776,843.250422 859.755134,854.723407 860.008154,862.947914 C860.134054,867.01921 863.925697,871.478074 865.925416,874.862262 C871.141065,883.691961 876.899424,892.10475 882.467102,900.707044 C887.6033,908.645459 890.913348,919.777336 899.73607,924.286327 Z M348.46877,388.782545 L308.132139,388.782545 C302.713584,404.940577 294.348011,420.166979 284.68311,434.127978 C280.49299,440.179904 272.49778,444.172953 270.240151,451.135725 L324.022327,451.135725 C329.790465,451.135725 340.658132,449.070734 345.635427,452.392569 C349.099489,454.704527 348.461436,459.760025 348.46877,463.361839 C348.48955,473.548637 348.538443,483.740325 348.467548,493.927123 C348.441879,497.719663 348.729125,502.398597 344.6209,504.193391 C337.627995,507.247474 325.472001,504.930625 317.910716,504.930625 C295.841689,504.930625 273.92912,503.708014 251.905319,503.708014 C243.576415,503.708014 231.661219,501.542769 223.791909,504.445249 C218.263346,506.485787 214.432588,512.212499 210.658057,516.452515 C203.809386,524.145186 196.766366,531.785284 189.584,539.162521 C182.120501,546.828295 169.23967,556.958852 166.342767,567.283805 L284.908017,567.283805 C299.259302,567.283805 313.404014,567.418293 327.689293,568.397604 C332.755819,568.743603 338.582629,567.541776 343.507365,568.895207 C348.55311,570.280426 348.438212,575.152532 348.467548,579.509919 C348.532331,588.880013 348.532331,598.259887 348.467548,607.629981 C348.441879,611.422521 348.729125,616.101455 344.6209,617.896248 C340.244987,619.80719 333.591887,618.633483 328.911616,618.633483 L292.24195,618.633483 L167.565089,618.633483 L128.450779,618.633483 C121.570328,618.633483 114.785218,617.761761 108.893625,621.963877 C96.2169214,631.00631 85.5591277,643.629773 73.4462817,653.521921 C49.4775218,673.097152 24.3691909,686.47252 9.95055631,715.219782 C5.07385754,724.94321 3.18488086,736.369736 1.42730381,747.007677 C-6.80540271,796.838872 20.9122193,869.985265 75.890926,879.705026 C99.512302,883.881466 124.952493,877.47376 146.785612,868.942378 C155.077846,865.702457 162.490007,860.221491 171.232055,858.265313 C171.232055,881.782242 182.688881,898.510011 203.017321,910.034346 C210.326808,914.178998 220.109052,918.460584 228.681197,918.044896 C241.926281,917.403025 253.297544,909.709131 262.508964,900.815856 C271.412358,892.220898 277.769656,882.781116 283.069645,871.714038 C285.634077,866.360222 289.065135,859.52338 288.246179,853.374867 C287.050748,844.392341 276.727015,840.141321 277.964005,830.145251 C278.804963,823.354867 282.856961,817.367739 286.538595,811.80608 C294.223335,800.197385 302.617021,789.593677 313.021427,780.227251 C331.554276,763.541051 353.441177,750.33318 376.587069,741.218613 C384.065237,738.273342 392.069002,735.474784 399.806301,733.31932 C403.461045,732.300885 408.933381,731.641898 410.980771,727.972841 C412.777584,724.75126 412.029523,719.983076 412.029523,716.442393 L412.029523,691.990166 L412.029523,600.294313 L412.029523,267.744019 C406.229604,269.252721 402.1006,273.084385 397.361657,276.631181 C385.626142,285.414421 375.191178,295.618335 364.358958,305.437127 C358.986853,310.306788 351.736037,315.655713 349.202164,322.761531 C347.04721,328.802453 348.46877,337.200571 348.46877,343.545924 L348.46877,388.782545 Z M1241.37512,379.001654 C1224.03036,413.581994 1205.2555,447.416541 1187.42548,481.701009 C1155.93357,542.270399 1125.29362,603.272594 1093.82983,663.870104 C1060.39565,728.261377 1025.66214,792.205175 993.368393,857.06104 C979.642937,884.624814 965.071634,911.928171 950.370766,938.957663 C946.66224,945.778612 943.794672,953.027475 939.891798,959.742057 C936.705204,965.223023 931.93448,971.380094 932.033488,978.081227 C932.109272,983.183184 935.87158,987.964818 938.5668,992.031223 C942.682359,998.240866 946.184312,1004.57888 949.770605,1011.09173 C954.628114,1019.91165 961.557458,1035.68212 970.630756,1040.43441 C973.97014,1032.31994 978.863095,1025.05885 982.693853,1017.20479 C992.581217,996.93634 1002.76561,976.788927 1013.86429,957.188021 C1030.82523,927.234043 1045.19119,895.605086 1061.63386,865.398027 C1075.7688,839.429762 1088.90265,812.749936 1101.88371,786.240054 C1115.10557,759.242349 1130.01668,733.073576 1144.13939,706.61382 C1163.4863,670.365838 1181.15497,633.147103 1200.2562,596.835545 C1213.34727,571.94929 1226.49946,547.184074 1239.12604,522.047185 C1244.50426,511.345667 1289.38793,427.230005 1292.70042,415.679995 C1294.91283,407.962872 1293.32381,397.991254 1293.32381,390.005156 L1293.32381,336.210256 C1293.32381,310.942954 1293.32381,298.309303 1293.32381,298.309303 C1293.32381,298.309303 1280.69315,316.240937 1255.43182,352.104204 C1249.07575,364.018959 1244.39018,372.984776 1241.37512,379.001654 Z M1282.32291,542.831578 C1284.99979,549.208719 1281.10059,560.413952 1281.10059,567.283805 L1281.10059,614.965649 L1281.10059,658.979658 C1281.10059,665.992557 1282.22512,674.147375 1280.5261,680.986663 C1277.75142,692.112427 1246.17884,750.730529 1240.86174,760.664246 C1232.65996,775.998238 1224.81265,791.625657 1216.63532,806.933974 C1198.1538,841.54977 1181.76246,877.25369 1163.42885,912.012531 C1153.74684,930.367596 1142.69094,948.256845 1133.66898,967.059386 C1119.53282,996.520652 1102.82245,1024.64805 1088.30249,1053.88313 C1083.83857,1062.87055 1079.43087,1071.83963 1074.77994,1080.7329 C1073.0968,1083.95081 1051.84429,1134.50133 1048.85937,1136.7277 C1044.52991,1139.96029 1030.49685,1120.36572 1025.33254,1120.36572 L998.744165,1093.0067 C999.447001,1086.14051 1003.00396,1080.72434 1006.07443,1074.66753 C1011.11529,1064.72525 1016.23193,1054.84777 1021.39624,1044.97152 C1037.46733,1014.22896 1053.90023,983.439933 1069.63518,952.406388 C1095.80266,900.797517 1122.96755,849.741266 1149.68384,798.357355 C1159.35485,779.756546 1168.05045,760.516311 1177.97693,742.116009 C1192.78537,714.664716 1206.22113,686.449291 1220.96234,658.979658 C1232.47661,637.505712 1272.2143,565.075769 1282.32291,542.831578 Z M1282.32291,797.134744 C1284.48642,802.288051 1281.10059,808.705538 1281.10059,814.251303 L1281.10059,849.707033 L1281.10059,905.947156 C1281.10059,914.364835 1282.70183,924.682453 1280.48943,932.844606 C1277.70253,943.167114 1246.04439,1002.99193 1241.08176,1012.33268 C1232.81886,1027.9112 1225.61938,1044.28197 1217.47872,1059.99619 C1211.86826,1070.82975 1136.72023,1239.64913 1136.72023,1239.64913 C1136.72023,1239.64913 1132.12556,1241.15575 1129.34626,1237.58789 C1125.09075,1232.12501 1111.37724,1214.52067 1088.20574,1184.7749 C1092.42764,1171.08409 1141.29015,1066.38556 1148.12171,1053.88313 C1158.465,1034.95711 1167.89277,1015.49558 1177.95493,996.420398 C1197.65265,959.086737 1216.39085,921.204123 1236.38804,883.940151 C1242.86635,871.866864 1275.09899,808.816795 1282.32291,797.134744 Z M1353.2176,957.296834 C1355.38111,962.450141 1354.43992,968.867628 1354.43992,974.413393 L1354.43992,1009.86912 L1354.43992,1066.10925 C1354.43992,1074.52693 1356.04116,1084.84454 1353.82876,1093.0067 C1351.04186,1103.3292 1343.83016,1113.02696 1338.86753,1122.36771 C1330.60464,1137.94622 1323.40516,1154.31699 1315.26449,1170.03121 C1309.65403,1180.86477 1234.506,1349.68416 1234.506,1349.68416 C1234.506,1349.68416 1229.91133,1351.19077 1227.13203,1347.62292 C1222.87652,1342.16003 1209.16302,1324.5557 1185.99151,1294.80992 C1190.21341,1281.11912 1239.07593,1176.42058 1245.90749,1163.91816 C1256.25078,1144.99213 1265.67855,1125.5306 1275.7407,1106.45542 C1295.43843,1069.12176 1314.17663,1031.23915 1334.17382,993.975175 C1340.65212,981.901888 1345.99367,968.978886 1353.2176,957.296834 Z" id="Shape"></path>
        </g>
    </g>
</svg>