<?xml version="1.0" encoding="UTF-8"?>
<svg width="1160px" height="1160px" viewBox="0 0 1160 1160" version="1.1" xmlns="http://www.w3.org/2000/svg" xmlns:xlink="http://www.w3.org/1999/xlink" style="background: #FAFAFA;">
    <!-- Generator: Sketch 49.3 (51167) - http://www.bohemiancoding.com/sketch -->
    <title>default-user</title>
    <desc>Created with Sketch.</desc>
    <defs></defs>
    <g id="default-user" stroke="none" stroke-width="1" fill="none" fill-rule="evenodd">
        <g id="zebra-big" transform="translate(112.000000, 155.000000)" fill="#E3E3E3" fill-rule="nonzero">
            <path d="M102.087499,557.993561 L285.087499,557.993561 L285.087499,600.993561 L173.087499,600.993561 L142.087499,600.993561 C137.792499,600.993561 132.038499,601.963561 128.091499,599.965561 C123.490499,597.637561 120.072499,592.175561 117.254499,588.032561 C111.006499,578.850561 103.982499,569.176561 102.087499,557.993561 Z M380.087499,185.993561 L380.087499,588.993561 C391.352499,588.993561 403.948499,589.281561 415.087499,587.693561 C420.834499,586.874561 426.354499,584.836561 432.087499,583.993561 L432.087499,172.993561 L432.087499,59.9935611 L432.087499,28.9935611 C432.087499,24.3795611 432.983499,18.6805611 431.774499,14.2025611 C431.156499,11.9165611 429.172499,10.0715611 428.087499,7.99356109 C419.980499,5.97956109 413.975499,0.179561093 405.087499,0.00856109268 C401.215499,-0.0654389073 397.189499,0.264561093 395.115499,4.05256109 C392.446499,8.92556109 395.004499,15.2775611 396.697499,19.9935611 C400.353499,30.1765611 403.002499,40.5935611 405.947499,50.9935611 C412.957499,75.7565611 418.102499,100.986561 424.087499,125.993561 C425.681499,132.652561 426.977499,139.318561 428.472499,145.993561 C429.062499,148.626561 430.295499,152.199561 429.394499,154.863561 C427.963499,159.094561 420.710499,161.780561 417.102499,163.818561 C404.916499,170.698561 393.109499,181.057561 380.087499,185.993561 Z M585.087499,154.993561 C580.376499,153.405561 576.996499,150.194561 573.087499,147.209561 C571.285499,145.833561 568.844499,143.564561 566.351499,144.039561 C564.428499,144.404561 563.437499,146.507561 562.592499,148.037561 C560.251499,152.273561 558.163499,156.688561 555.948499,160.993561 C550.431499,171.716561 544.478499,182.211561 539.087499,192.993561 C535.918499,199.332561 533.302499,207.095561 528.087499,211.993561 L528.087499,141.993561 L528.087499,121.993561 C528.087499,118.531561 528.707499,114.297561 527.484499,110.994561 C525.338499,105.203561 517.623499,100.349561 513.087499,96.4175611 C506.234499,90.4785611 499.541499,84.3675611 493.087499,77.9975611 C488.081499,73.0575611 482.480499,66.9745611 476.087499,63.9935611 L476.087499,567.993561 C483.576499,566.696561 489.491499,561.665561 496.087499,558.183561 C506.207499,552.840561 518.653499,547.590561 526.248499,538.618561 C531.778499,532.084561 533.749499,522.412561 537.959499,514.993561 C550.752499,492.449561 562.647499,469.405561 573.865499,445.993561 C585.592499,421.520561 599.715499,398.219561 612.037499,373.993561 C646.061499,307.097561 680.848499,240.665561 715.345499,173.993561 L746.345499,113.993561 C751.540499,103.946561 757.745499,94.4705611 762.087499,83.9935611 C747.567499,84.6165611 736.207499,89.3975611 724.087499,96.9935611 C727.001499,89.6855611 733.548499,80.6035611 739.147499,75.0585611 C742.351499,71.8845611 746.841499,69.9555611 749.087499,65.9935611 C738.973499,66.2305611 728.298499,70.1325611 718.917499,73.6635611 C715.139499,75.0855611 710.565499,75.9725611 707.426499,78.6455611 C701.014499,84.1065611 697.946499,94.7145611 694.052499,101.993561 C684.817499,119.255561 676.089499,136.678561 667.016499,154.032561 C634.397499,216.422561 602.656499,279.324561 569.165499,341.279561 C559.472499,359.210561 550.941499,377.932561 541.385499,395.993561 C537.595499,403.156561 534.468499,412.855561 528.087499,417.993561 L528.087499,356.993561 C528.087499,347.615561 526.253499,335.984561 529.130499,326.993561 C532.061499,317.832561 537.601499,310.369561 542.048499,301.993561 C550.484499,286.101561 558.813499,270.074561 566.866499,253.993561 C578.692499,230.378561 590.998499,206.800561 603.452499,183.529561 C612.174499,167.232561 619.561499,150.234561 628.547499,134.082561 C637.150499,118.618561 644.692499,102.647561 652.872499,86.9935611 C656.879499,79.3235611 663.531499,71.5905611 665.087499,62.9935611 C657.254499,64.2155611 652.331499,69.6475611 646.087499,73.9935611 C645.917499,70.0315611 644.726499,65.9365611 645.470499,61.9935611 C647.124499,53.2165611 653.853499,46.4445611 661.087499,41.7935611 C664.823499,39.3915611 669.026499,38.2455611 672.087499,34.9935611 C648.983499,34.9965611 618.488499,45.6985611 605.489499,66.1635611 C595.844499,81.3485611 594.475499,100.649561 591.791499,117.993561 C589.876499,130.363561 586.660499,142.558561 585.087499,154.993561 Z M610.087499,578.993561 C614.416499,577.604561 615.641499,573.881561 617.587499,569.993561 C620.618499,563.937561 623.835499,557.978561 627.003499,551.993561 C635.915499,535.158561 644.064499,517.865561 652.873499,500.994561 C655.052499,496.819561 658.081499,493.180561 660.212499,488.978561 C663.385499,482.722561 665.766499,476.145561 669.221499,469.993561 C679.109499,452.389561 687.490499,433.893561 696.872499,415.993561 C728.416499,355.806561 759.536499,295.337561 790.873499,234.993561 C804.943499,207.898561 819.678499,181.201561 833.562499,153.993561 C840.038499,141.303561 849.925499,127.980561 853.087499,113.993561 C843.221499,113.993561 833.531499,114.038561 824.087499,117.380561 C817.734499,119.629561 811.890499,123.629561 806.087499,126.993561 C803.482499,115.659561 811.801499,107.666561 822.087499,104.377561 C826.347499,103.015561 830.835499,103.253561 835.087499,101.993561 L835.087499,99.9935611 C827.797499,96.0115611 813.483499,89.9275611 805.561499,95.9315611 C802.843499,97.9915611 801.587499,102.064561 800.062499,104.993561 C796.254499,112.308561 792.608499,119.700561 788.788499,126.993561 C774.635499,154.017561 760.240499,180.705561 746.587499,207.993561 C704.561499,291.990561 658.609499,374.013561 616.587499,457.993561 C605.833499,479.484561 594.108499,500.496561 583.334499,521.993561 C580.640499,527.367561 577.782499,532.660561 575.008499,537.993561 C573.809499,540.298561 572.034499,543.071561 572.510499,545.805561 C573.200499,549.765561 580.281499,552.927561 583.283499,555.168561 C592.690499,562.192561 603.251499,569.290561 610.087499,578.993561 Z M674.087499,662.993561 C683.406499,657.704561 685.687499,642.758561 690.999499,634.163561 C700.265499,619.168561 707.563499,602.704561 715.510499,586.993561 C723.625499,570.951561 732.236499,555.047561 740.360499,539.008561 C783.460499,453.915561 829.581499,370.349561 872.363499,284.993561 C877.994499,273.760561 884.456499,262.891561 890.513499,251.907561 C898.070499,238.204561 903.971499,223.763561 911.349499,210.008561 C917.554499,198.437561 926.800499,185.805561 930.087499,172.993561 C909.817499,182.027561 897.558499,204.902561 878.087499,214.993561 C879.488499,209.147561 882.664499,204.985561 885.641499,199.904561 C890.793499,191.110561 895.907499,182.808561 902.526499,174.994561 C905.803499,171.125561 910.491499,168.288561 913.087499,163.993561 C902.030499,163.962561 888.124499,160.231561 878.038499,166.476561 C869.318499,171.875561 865.061499,187.139561 860.062499,195.823561 C844.381499,223.066561 830.933499,252.006561 816.576499,279.993561 C795.763499,320.566561 774.025499,360.633561 752.872499,400.993561 C732.338499,440.170561 713.285499,480.042561 692.342499,518.993561 C679.895499,542.142561 668.211499,565.676561 656.062499,588.993561 L646.573499,606.993561 C645.200499,609.642561 642.559499,612.828561 642.679499,615.954561 C642.842499,620.206561 648.683499,624.996561 650.996499,628.428561 C658.467499,639.517561 668.881499,650.699561 674.087499,662.993561 Z M736.087499,755.993561 C756.790499,713.518561 779.644499,671.819561 801.583499,629.978561 C830.973499,573.930561 859.988499,517.597561 888.363499,460.993561 C904.856499,428.092561 923.095499,395.970561 939.622499,363.082561 C959.690499,323.149561 981.397499,283.953561 1001.4675,244.083561 C1006.7475,233.605561 1012.6275,223.506561 1017.9475,212.993561 C1020.8475,207.271561 1024.6275,201.236561 1026.0875,194.993561 C1012.9575,196.065561 996.717499,202.144561 985.667499,209.242561 C980.527499,212.542561 976.867499,217.344561 972.087499,220.993561 C972.542499,211.045561 976.957499,199.682561 984.207499,192.747561 C988.137499,188.997561 996.307499,185.954561 998.087499,180.993561 C991.537499,180.993561 980.817499,179.572561 975.217499,183.596561 C967.940499,188.822561 964.909499,202.457561 960.341499,209.993561 C955.836499,217.424561 952.691499,225.258561 948.587499,232.904561 C937.161499,254.191561 926.266499,275.618561 915.007499,296.993561 C890.348499,343.806561 866.929499,391.356561 842.052499,437.993561 C827.133499,465.961561 811.603499,493.847561 797.470499,522.164561 C788.111499,540.916561 777.792499,559.291561 768.356499,577.993561 C759.083499,596.373561 750.528499,615.120561 740.377499,632.993561 C730.938499,649.613561 723.322499,667.266561 714.076499,683.993561 C710.915499,689.712561 703.378499,699.096561 703.585499,705.823561 C703.688499,709.153561 706.790499,712.800561 708.426499,715.568561 C712.693499,722.790561 717.404499,729.671561 721.959499,736.707561 C726.161499,743.200561 728.869499,752.305561 736.087499,755.993561 Z M285.087499,317.993561 L252.087499,317.993561 C247.654499,331.209561 240.810499,343.663561 232.903499,355.082561 C229.475499,360.032561 222.934499,363.298561 221.087499,368.993561 L265.087499,368.993561 C269.806499,368.993561 278.697499,367.304561 282.769499,370.021561 C285.603499,371.912561 285.081499,376.047561 285.087499,378.993561 C285.104499,387.325561 285.144499,395.661561 285.086499,403.993561 C285.065499,407.095561 285.300499,410.922561 281.939499,412.390561 C276.218499,414.888561 266.273499,412.993561 260.087499,412.993561 C242.032499,412.993561 224.105499,411.993561 206.087499,411.993561 C199.273499,411.993561 189.525499,410.222561 183.087499,412.596561 C178.564499,414.265561 175.430499,418.949561 172.342499,422.417561 C166.739499,428.709561 160.977499,434.958561 155.101499,440.992561 C148.995499,447.262561 138.457499,455.548561 136.087499,463.993561 L233.087499,463.993561 C244.828499,463.993561 256.400499,464.103561 268.087499,464.904561 C272.232499,465.187561 276.999499,464.204561 281.028499,465.311561 C285.156499,466.444561 285.062499,470.429561 285.086499,473.993561 C285.139499,481.657561 285.139499,489.329561 285.086499,496.993561 C285.065499,500.095561 285.300499,503.922561 281.939499,505.390561 C278.359499,506.953561 272.916499,505.993561 269.087499,505.993561 L239.087499,505.993561 L137.087499,505.993561 L105.087499,505.993561 C99.4584985,505.993561 93.9074985,505.280561 89.0874985,508.717561 C78.7164985,516.113561 69.9971985,526.438561 60.0874985,534.529561 C40.4782985,550.540561 19.9367985,561.480561 8.14069854,584.993561 C4.15099854,592.946561 2.60559854,602.292561 1.16769854,610.993561 C-5.56760146,651.751561 17.1085985,711.579561 62.0874985,719.529561 C81.4124985,722.945561 102.225499,717.704561 120.087499,710.726561 C126.871499,708.076561 132.935499,703.593561 140.087499,701.993561 C140.087499,721.228561 149.460499,734.910561 166.091499,744.336561 C172.071499,747.726561 180.074499,751.228561 187.087499,750.888561 C197.923499,750.363561 207.226499,744.070561 214.762499,736.796561 C222.046499,729.766561 227.247499,722.045561 231.583499,712.993561 C233.681499,708.614561 236.488499,703.022561 235.818499,697.993561 C234.840499,690.646561 226.394499,687.169561 227.406499,678.993561 C228.094499,673.439561 231.409499,668.542561 234.421499,663.993561 C240.708499,654.498561 247.575499,645.825561 256.087499,638.164561 C271.249499,624.516561 289.155499,613.713561 308.091499,606.258561 C314.209499,603.849561 320.757499,601.560561 327.087499,599.797561 C330.077499,598.964561 334.554499,598.425561 336.229499,595.424561 C337.699499,592.789561 337.087499,588.889561 337.087499,585.993561 L337.087499,565.993561 L337.087499,490.993561 L337.087499,218.993561 C332.342499,220.227561 328.964499,223.361561 325.087499,226.262561 C315.486499,233.446561 306.949499,241.792561 298.087499,249.823561 C293.692499,253.806561 287.760499,258.181561 285.687499,263.993561 C283.924499,268.934561 285.087499,275.803561 285.087499,280.993561 L285.087499,317.993561 Z M1015.5875,309.993561 C1001.3975,338.277561 986.037499,365.951561 971.450499,393.993561 C945.686499,443.534561 920.619499,493.429561 894.878499,542.993561 C867.525499,595.660561 839.109499,647.961561 812.689499,701.008561 C801.460499,723.553561 789.539499,745.885561 777.512499,767.993561 C774.478499,773.572561 772.132499,779.501561 768.939499,784.993561 C766.332499,789.476561 762.429499,794.512561 762.510499,799.993561 C762.572499,804.166561 765.650499,808.077561 767.855499,811.403561 C771.222499,816.482561 774.087499,821.666561 777.021499,826.993561 C780.995499,834.207561 786.664499,847.106561 794.087499,850.993561 C796.819499,844.356561 800.822499,838.417561 803.956499,831.993561 C812.045499,815.415561 820.377499,798.936561 829.457499,782.904561 C843.333499,758.404561 855.086499,732.534561 868.538499,707.827561 C880.102499,686.587561 890.847499,664.765561 901.467499,643.082561 C912.284499,621.000561 924.483499,599.596561 936.037499,577.954561 C951.865499,548.306561 966.320499,517.864561 981.947499,488.164561 C992.657499,467.809561 1003.4175,447.553561 1013.7475,426.993561 C1018.1475,418.240561 1054.8675,349.440561 1057.5775,339.993561 C1059.3875,333.681561 1058.0875,325.525561 1058.0875,318.993561 L1058.0875,274.993561 C1058.0875,254.326894 1058.0875,243.993561 1058.0875,243.993561 C1058.0875,243.993561 1047.75417,258.660228 1027.0875,287.993561 C1021.8875,297.738894 1018.05417,305.072228 1015.5875,309.993561 Z M1049.0875,443.993561 C1051.2775,449.209561 1048.0875,458.374561 1048.0875,463.993561 L1048.0875,502.993561 L1048.0875,538.993561 C1048.0875,544.729561 1049.0075,551.399561 1047.6175,556.993561 C1045.3475,566.093561 1019.5175,614.038561 1015.1675,622.163561 C1008.4575,634.705561 1002.0375,647.487561 995.347499,660.008561 C980.227499,688.321561 966.817499,717.524561 951.818499,745.954561 C943.897499,760.967561 934.852499,775.599561 927.471499,790.978561 C915.906499,815.075561 902.235499,838.081561 890.356499,861.993561 C886.704499,869.344561 883.098499,876.680561 879.293499,883.954561 C877.916499,886.586561 860.529499,927.932906 858.087499,929.753906 C854.545499,932.397906 843.064844,916.371094 838.839844,916.371094 L817.087499,893.993561 C817.662499,888.377561 820.572499,883.947561 823.084499,878.993561 C827.208499,870.861561 831.394499,862.782561 835.619499,854.704561 C848.767499,829.559561 862.211499,804.376561 875.084499,778.993561 C896.492499,736.781561 918.716499,695.021561 940.573499,652.993561 C948.485499,637.779561 955.599499,622.042561 963.720499,606.992561 C975.835499,584.539561 986.827499,561.461561 998.887499,538.993561 C1008.3075,521.429561 1040.8175,462.187561 1049.0875,443.993561 Z M1049.0875,651.993561 C1050.8575,656.208561 1048.0875,661.457561 1048.0875,665.993561 L1048.0875,694.993561 L1048.0875,740.993561 C1048.0875,747.878561 1049.3975,756.317561 1047.5875,762.993561 C1045.3075,771.436561 1019.4075,820.368561 1015.3475,828.008561 C1008.5875,840.750561 1002.6975,854.140561 996.037499,866.993561 C991.447499,875.854561 929.967773,1013.93555 929.967773,1013.93555 C929.967773,1013.93555 926.208808,1015.16784 923.935017,1012.24961 C920.453524,1007.7814 909.2343,993.382443 890.277344,969.052734 C893.731344,957.854734 933.706499,872.219561 939.295499,861.993561 C947.757499,846.513561 955.470499,830.595561 963.702499,814.993561 C979.817499,784.457561 995.147499,753.472561 1011.5075,722.993561 C1016.8075,713.118561 1043.1775,661.548561 1049.0875,651.993561 Z M1107.0875,782.993561 C1108.8575,787.208561 1108.0875,792.457561 1108.0875,796.993561 L1108.0875,825.993561 L1108.0875,871.993561 C1108.0875,878.878561 1109.3975,887.317561 1107.5875,893.993561 C1105.3075,902.436561 1099.4075,910.368561 1095.3475,918.008561 C1088.5875,930.750561 1082.6975,944.140561 1076.0375,956.993561 C1071.4475,965.854561 1009.96777,1103.93555 1009.96777,1103.93555 C1009.96777,1103.93555 1006.20881,1105.16784 1003.93502,1102.24961 C1000.45352,1097.7814 989.2343,1083.38244 970.277344,1059.05273 C973.731344,1047.85473 1013.7065,962.219561 1019.2955,951.993561 C1027.7575,936.513561 1035.4705,920.595561 1043.7025,904.993561 C1059.8175,874.457561 1075.1475,843.472561 1091.5075,812.993561 C1096.8075,803.118561 1101.1775,792.548561 1107.0875,782.993561 Z" id="Shape"></path>
        </g>
    </g>
</svg>