<svg viewBox="0 0 180 53" xmlns="http://www.w3.org/2000/svg">
  <g fill-rule="evenodd">
    <path d="M167.1087 10.5713c-4.209 0-7.634 3.424-7.634 7.633 0 4.21 3.425 7.635 7.634 7.635 4.209 0 7.634-3.425 7.634-7.635 0-4.209-3.425-7.633-7.634-7.633m0 20.282c-6.975 0-12.649-5.675-12.649-12.649 0-6.975 5.674-12.649 12.649-12.649 6.975 0 12.648 5.674 12.648 12.649 0 6.974-5.673 12.649-12.648 12.649M12.5613 47.3281c-2.057 0-3.729-1.673-3.729-3.729 0-2.055 1.672-3.729 3.729-3.729 2.056 0 3.729 1.674 3.729 3.729 0 2.056-1.673 3.729-3.729 3.729m0-12.683c-4.938 0-8.955 4.017-8.955 8.954 0 4.938 4.017 8.955 8.955 8.955 4.937 0 8.955-4.017 8.955-8.955 0-4.937-4.018-8.954-8.955-8.954M12.638 25.8427c-4.206 0-7.627-3.422-7.627-7.628 0-4.206 3.421-7.628 7.627-7.628 4.206 0 7.627 3.422 7.627 7.628 0 4.206-3.421 7.628-7.627 7.628M29.32 5.5757H13.422c-.09 0-.175.018-.263.027-.174-.007-.345-.027-.521-.027C5.669 5.5757 0 11.2447 0 18.2147c0 6.969 5.669 12.639 12.638 12.639s12.638-5.67 12.638-12.639c0-2.867-.97-5.505-2.584-7.628h6.628c1.384 0 2.506-1.121 2.506-2.505s-1.122-2.506-2.506-2.506M146.1478 30.8535c-1.485 0-2.689-1.204-2.689-2.689V8.2655c0-1.485 1.204-2.689 2.689-2.689 1.486 0 2.69 1.204 2.69 2.689v19.899c0 1.485-1.204 2.689-2.69 2.689M65.4803 25.5224c-1.516.36-3.276.004-4.181-.854-.241-.227-.971-.808-.634-2.659.169-.928.621-1.543 1.463-1.993 1.941-1.035 5.197-.793 6.796-.438-.002 1.642-.016 3.056-.034 4.359-.342.356-1.254 1.07-3.41 1.585m8.779-1.057c.047-2.998.079-6.773-.024-11.122-.075-3.204-1.615-5.01-2.893-5.963-4.22-3.138-11.417-1.29-12.223-1.07-1.431.392-2.272 1.868-1.882 3.3.389 1.432 1.871 2.279 3.299 1.889 1.758-.474 5.926-1.048 7.597.2.324.241.699.661.725 1.77.007.32.014.487.02.806-2.427-.36-5.399-.286-7.677.473-3.193 1.062-5.263 3.003-5.828 6.105-.554 3.042.236 5.644 2.226 7.528 1.682 1.593 4.127 2.472 6.647 2.472.828 0 1.664-.095 2.484-.291.989-.235 1.836-.523 2.583-.836.472.655 1.225 1.099 2.094 1.126.029.001.056.001.084.001 1.447 0 2.642-1.15 2.687-2.606.001-.033.043-1.413.077-3.563.007-.074.004-.146.004-.219M118.9222 10.956h9.481c1.486 0 2.69-1.204 2.69-2.69s-1.204-2.69-2.69-2.69h-9.481V2.689c0-1.486-1.204-2.689-2.69-2.689s-2.689 1.203-2.689 2.689v2.887h-3.563c-1.486 0-2.689 1.204-2.689 2.69s1.203 2.69 2.689 2.69h3.563V21.48c0 .032.008.06.009.091-.001.031-.009.06-.009.091 0 5.13 4.173 9.191 9.303 9.191.019 0 .037-.004.056-.005.02.001.037.005.057.005 1.485 0 2.689-1.204 2.689-2.689s-1.204-2.689-2.689-2.689c-.02 0-.037.004-.057.004-.019 0-.037-.004-.056-.004-2.164 0-3.924-1.65-3.924-3.813 0-.031-.008-.06-.009-.091.001-.031.009-.059.009-.091V10.956zM137.2093 28.164c0 1.485-1.205 2.689-2.69 2.689-1.485 0-2.689-1.204-2.689-2.689s1.204-2.689 2.689-2.689 2.69 1.204 2.69 2.689M38.3963 30.8535c-1.447 0-2.642-1.15-2.687-2.606-.002-.079-.237-7.254-.057-14.904.076-3.204 1.616-5.011 2.894-5.963 4.221-3.14 11.416-1.29 12.223-1.07 1.433.393 2.275 1.872 1.883 3.305-.392 1.431-1.87 2.274-3.3 1.884-1.758-.474-5.926-1.048-7.598.2-.323.241-.698.661-.724 1.77-.177 7.507.054 14.535.056 14.612.046 1.484-1.121 2.725-2.605 2.771-.029.001-.057.001-.085.001M93.4988 5.5761c-3.074-.319-5.619.927-7.591 2.047-.292-1.169-1.341-2.038-2.601-2.038-1.486 0-2.689 1.203-2.689 2.689v19.89c0 1.485 1.203 2.689 2.689 2.689s2.69-1.204 2.69-2.689v-13.745c.962-1.11 3.41-3.84 6.959-3.491 4.134.419 4.306 4.183 4.256 5.344v11.892c0 1.485 1.204 2.689 2.69 2.689s2.689-1.204 2.689-2.689l-.006-11.716c.251-3.799-1.963-10.148-9.086-10.872"/>
  </g>
</svg>
