<svg viewBox="0 0 101 101" xmlns="http://www.w3.org/2000/svg">
  <g fill="none" fill-rule="evenodd">
    <path d="M80.0851 50.093h-26.992M81.4679 50.093c0 17.328-14.047 31.375-31.375 31.375s-31.375-14.047-31.375-31.375 14.047-31.375 31.375-31.375" stroke="#231F20" stroke-width="6" stroke-linecap="round"/>
    <path d="M93.485 31.762c2.383 5.635 3.701 11.829 3.701 18.331 0 6.502-1.318 12.697-3.701 18.331s-5.832 10.708-10.092 14.969c-4.262 4.262-9.335 7.71-14.97 10.093-5.634 2.382-11.828 3.701-18.33 3.701-6.503 0-12.697-1.319-18.331-3.701-5.634-2.383-10.708-5.831-14.969-10.093-4.261-4.261-7.709-9.335-10.093-14.969C4.318 62.79 3 56.595 3 50.093c0-6.502 1.318-12.696 3.7-18.331 2.384-5.634 5.832-10.708 10.093-14.969 4.261-4.26 9.335-7.709 14.969-10.093C37.396 4.318 43.59 3 50.093 3c6.502 0 12.696 1.318 18.33 3.7" stroke="#231F20" stroke-width="6" stroke-linecap="round"/>
    <path d="M83.0876 7.8928c-5.014 0-9.093 4.079-9.093 9.092 0 5.014 4.079 9.093 9.093 9.093s9.092-4.079 9.092-9.093c0-5.013-4.078-9.092-9.092-9.092" fill="#231F20"/>
    <path d="M83.0876 20.7717c-2.088 0-3.787-1.698-3.787-3.787 0-2.087 1.699-3.785 3.787-3.785s3.787 1.698 3.787 3.785c0 2.089-1.699 3.787-3.787 3.787" fill="#FFF"/>
  </g>
</svg>
