<?xml version="1.0" encoding="UTF-8"?>
<svg viewBox="0 0 133 132" version="1.1" xmlns="http://www.w3.org/2000/svg" xmlns:xlink="http://www.w3.org/1999/xlink">
    <!-- Generator: Sketch 53 (72520) - https://sketchapp.com -->
    <title>Artboard</title>
    <desc>Created with Sketch.</desc>
    <g id="Artboard" stroke="none" stroke-width="1" fill="none" fill-rule="evenodd">
        <g id="noun_Community_1289689" fill="#D8A143" fill-rule="nonzero">
            <g id="Group" transform="translate(0.217391, 0.000000)">
                <path d="M26.3150538,72.1695652 C35.3247312,72.1695652 42.6182796,64.8521739 42.6182796,55.8130435 C42.6182796,46.773913 35.3247312,39.4565217 26.3150538,39.4565217 C17.3053763,39.4565217 10.011828,46.773913 10.011828,55.8130435 C10.011828,64.8521739 17.3053763,72.1695652 26.3150538,72.1695652 Z M26.3150538,42.326087 C33.7516129,42.326087 39.7580645,48.3521739 39.7580645,55.8130435 C39.7580645,63.273913 33.7516129,69.3 26.3150538,69.3 C18.8784946,69.3 12.872043,63.273913 12.872043,55.8130435 C12.872043,48.3521739 18.8784946,42.326087 26.3150538,42.326087 Z" id="Shape"></path>
                <path d="M124.992473,79.9173913 C124.992473,79.773913 124.849462,79.773913 124.992473,79.9173913 L118.270968,76.3304348 C116.983871,75.4695652 115.410753,75.6130435 114.266667,76.7608696 C109.26129,80.7782609 101.967742,80.7782609 96.8193548,76.7608696 C95.6752688,75.7565217 94.1021505,75.6130435 92.8150538,76.3304348 L86.2365591,79.9173913 C86.2365591,79.9173913 86.0935484,79.9173913 86.0935484,80.0608696 C83.5193548,81.926087 81.5172043,84.3652174 80.516129,87.2347826 L78.6569892,86.0869565 C77.3698925,85.226087 75.7967742,85.3695652 74.6526882,86.373913 C69.5043011,90.2478261 62.3537634,90.2478261 57.2053763,86.373913 C56.0612903,85.3695652 54.488172,85.226087 53.2010753,86.0869565 L51.4849462,87.0913043 C50.3408602,84.2217391 48.4817204,81.6391304 45.9075269,79.9173913 C45.9075269,79.9173913 45.7645161,79.9173913 45.7645161,79.773913 L39.1860215,76.1869565 C37.8989247,75.326087 36.3258065,75.4695652 35.1817204,76.6173913 C30.1763441,80.6347826 22.8827957,80.6347826 17.7344086,76.6173913 C16.5903226,75.6130435 15.0172043,75.4695652 13.7301075,76.1869565 L7.1516129,79.773913 C7.1516129,79.773913 7.00860215,79.773913 7.00860215,79.9173913 C2.00322581,83.3608696 -0.427956989,89.5304348 0.57311828,95.5565217 L5.14946237,116.217391 C5.86451613,119.66087 9.01075269,122.1 12.5860215,122.1 L40.616129,122.1 C41.7602151,122.1 42.7612903,121.813043 43.7623656,121.382609 L44.7634409,126.117391 C45.4784946,129.56087 48.6247312,132 52.2,132 L80.2301075,132 C83.8053763,132 86.8086022,129.56087 87.6666667,126.117391 L88.6677419,121.382609 C89.6688172,121.813043 90.6698925,122.1 91.8139785,122.1 L119.844086,122.1 C123.419355,122.1 126.422581,119.66087 127.280645,116.217391 L131.856989,95.5565217 C132.572043,89.3869565 129.997849,83.3608696 124.992473,79.9173913 Z M40.3301075,119.230435 L12.3,119.230435 C10.011828,119.230435 8.15268817,117.652174 7.72365591,115.5 L3.14731183,94.9826087 C2.28924731,90.1043478 4.29139785,85.0826087 8.43870968,82.3565217 L15.0172043,78.7695652 C15.0172043,78.7695652 15.1602151,78.7695652 15.1602151,78.626087 C15.3032258,78.4826087 15.5892473,78.4826087 15.7322581,78.626087 C15.7322581,78.626087 15.8752688,78.626087 15.8752688,78.7695652 C22.0247312,83.7913043 30.8913978,83.7913043 37.0408602,78.7695652 C37.0408602,78.7695652 37.183871,78.7695652 37.183871,78.626087 C37.3268817,78.4826087 37.4698925,78.4826087 37.755914,78.626087 C37.755914,78.626087 37.8989247,78.626087 37.8989247,78.7695652 L44.4774194,82.3565217 C46.6225806,83.9347826 48.1956989,86.0869565 49.1967742,88.526087 L46.9086022,89.8173913 C46.9086022,89.8173913 46.7655914,89.8173913 46.7655914,89.9608696 C41.7602151,93.4043478 39.3290323,99.573913 40.3301075,105.6 L43.1903226,118.656522 C42.0462366,118.943478 41.188172,119.230435 40.3301075,119.230435 Z M84.5204301,125.4 C84.0913978,127.552174 82.0892473,129.130435 79.944086,129.130435 L51.9139785,129.130435 C49.6258065,129.130435 47.7666667,127.552174 47.3376344,125.4 L42.7612903,104.882609 C41.9032258,100.004348 43.9053763,94.9826087 48.0526882,92.2565217 L54.6311828,88.6695652 C54.6311828,88.6695652 54.7741935,88.6695652 54.7741935,88.526087 C54.9172043,88.3826087 55.2032258,88.3826087 55.3462366,88.526087 L55.4892473,88.6695652 C61.6387097,93.4043478 70.3623656,93.4043478 76.511828,88.6695652 L76.6548387,88.526087 C76.7978495,88.3826087 76.9408602,88.3826087 77.2268817,88.526087 C77.2268817,88.526087 77.3698925,88.526087 77.3698925,88.6695652 L83.9483871,92.2565217 C87.9526882,95.126087 89.9548387,100.147826 89.2397849,104.882609 L84.5204301,125.4 Z M128.710753,94.8391304 L124.134409,115.5 C123.705376,117.652174 121.703226,119.230435 119.558065,119.230435 L91.527957,119.230435 C90.6698925,119.230435 89.811828,118.943478 88.9537634,118.513043 L91.8139785,105.456522 C92.8150538,99.4304348 90.2408602,93.4043478 85.3784946,89.8173913 C85.3784946,89.8173913 85.2354839,89.8173913 85.2354839,89.673913 L82.9473118,88.3826087 C83.8053763,85.9434783 85.5215054,83.7913043 87.6666667,82.2130435 L94.2451613,78.626087 C94.2451613,78.626087 94.388172,78.626087 94.388172,78.4826087 C94.5311828,78.3391304 94.8172043,78.3391304 94.9602151,78.4826087 C94.9602151,78.4826087 95.1032258,78.4826087 95.1032258,78.626087 C101.252688,83.6478261 110.119355,83.6478261 116.268817,78.626087 C116.268817,78.626087 116.411828,78.626087 116.411828,78.4826087 C116.554839,78.3391304 116.697849,78.3391304 116.983871,78.4826087 C116.983871,78.4826087 117.126882,78.4826087 117.126882,78.626087 L123.705376,82.2130435 C127.423656,85.0826087 129.568817,90.1043478 128.710753,94.8391304 Z" id="Shape"></path>
                <path d="M89.2397849,55.8130435 C89.2397849,64.8521739 96.5333333,72.1695652 105.543011,72.1695652 C114.552688,72.1695652 121.846237,64.8521739 121.846237,55.8130435 C121.846237,46.773913 114.552688,39.4565217 105.543011,39.4565217 C96.5333333,39.4565217 89.2397849,46.773913 89.2397849,55.8130435 Z M105.543011,42.326087 C112.97957,42.326087 118.986022,48.3521739 118.986022,55.8130435 C118.986022,63.273913 112.97957,69.3 105.543011,69.3 C98.1064516,69.3 92.1,63.273913 92.1,55.8130435 C92.1,48.3521739 98.1064516,42.326087 105.543011,42.326087 Z" id="Shape"></path>
                <path d="M65.9290323,49.3565217 C56.9193548,49.3565217 49.6258065,56.673913 49.6258065,65.7130435 C49.6258065,74.7521739 56.9193548,82.0695652 65.9290323,82.0695652 C74.9387097,82.0695652 82.2322581,74.7521739 82.2322581,65.7130435 C82.2322581,56.673913 74.9387097,49.3565217 65.9290323,49.3565217 Z M65.9290323,79.2 C58.4924731,79.2 52.4860215,73.173913 52.4860215,65.7130435 C52.4860215,58.2521739 58.4924731,52.226087 65.9290323,52.226087 C73.3655914,52.226087 79.372043,58.2521739 79.372043,65.7130435 C79.372043,73.173913 73.3655914,79.2 65.9290323,79.2 Z" id="Shape"></path>
                <path d="M43.3333333,33 C43.1903226,36.4434783 42.4752688,37.4478261 42.3322581,37.5913043 C41.7602151,37.8782609 41.3311828,38.4521739 41.4741935,39.026087 C41.6172043,39.7434783 42.1892473,40.3173913 42.9043011,40.3173913 C49.4827957,40.3173913 52.4860215,37.1608696 53.4870968,35.5826087 C53.7731183,35.5826087 54.0591398,35.5826087 54.3451613,35.5826087 C60.7806452,35.5826087 66.644086,33.1434783 70.3623656,29.126087 C71.7924731,30.1304348 73.3655914,30.9913043 75.0817204,31.5652174 C77.3698925,32.426087 79.6580645,32.7130435 82.0892473,32.7130435 C83.0903226,34.1478261 85.5215054,36.4434783 90.6698925,36.4434783 C91.3849462,36.4434783 91.9569892,35.8695652 92.1,35.1521739 C92.1,34.5782609 91.8139785,34.0043478 91.2419355,33.7173913 C91.0989247,33.573913 90.6698925,32.8565217 90.5268817,30.4173913 C95.3892473,27.8347826 98.5354839,23.1 98.5354839,18.0782609 C98.5354839,10.0434783 90.955914,3.58695652 81.5172043,3.58695652 C79.2290323,3.58695652 77.083871,4.0173913 74.9387097,4.73478261 C73.3655914,5.30869565 72.0784946,6.02608696 70.7913978,6.88695652 C66.9301075,2.72608696 60.9236559,0 54.2021505,0 C42.6182796,0 33.3225806,8.03478261 33.3225806,17.7913043 C33.3225806,23.9608696 37.0408602,29.7 43.3333333,33 Z M75.9397849,8.60434783 C77.655914,8.03043478 79.6580645,7.6 81.5172043,7.6 C89.3827957,7.6 95.6752688,12.7652174 95.6752688,19.2217391 C95.6752688,23.3826087 92.9580645,27.2565217 88.5247312,29.4086957 C88.5247312,29.4086957 88.3817204,29.4086957 88.3817204,29.5521739 C88.2387097,29.5521739 88.0956989,29.6956522 88.0956989,29.8391304 L87.9526882,29.9826087 C87.9526882,30.126087 87.8096774,30.126087 87.8096774,30.2695652 C87.8096774,30.4130435 87.8096774,30.4130435 87.8096774,30.5565217 C87.8096774,30.7 87.8096774,30.7 87.8096774,30.8434783 C87.8096774,32.4217391 87.9526882,33.5695652 88.2387097,34.573913 C85.2354839,33.8565217 84.3774194,31.9913043 84.2344086,31.8478261 C83.9483871,31.273913 83.3763441,30.9869565 82.8043011,30.9869565 C80.516129,31.1304348 78.0849462,30.8434783 76.0827957,30.126087 C74.6526882,29.6956522 73.3655914,28.9782609 72.2215054,28.1173913 C74.0806452,25.3913043 75.2247312,22.2347826 75.2247312,18.9347826 C75.2247312,15.7782609 74.2236559,12.9086957 72.6505376,10.326087 C73.6516129,9.60869565 74.6526882,9.03478261 75.9397849,8.60434783 Z M54.2021505,2.86956522 C64.2129032,2.86956522 72.2215054,9.61304348 72.2215054,17.7913043 C72.2215054,25.9695652 64.0698925,32.7130435 54.2021505,32.7130435 C53.6301075,32.7130435 53.2010753,32.7130435 52.6290323,32.7130435 L52.6290323,32.7130435 C52.0569892,32.7130435 51.4849462,33 51.1989247,33.573913 C51.1989247,33.7173913 49.911828,36.4434783 45.4784946,37.3043478 C45.7645161,36.1565217 46.0505376,34.4347826 46.0505376,32.1391304 C46.0505376,31.5652174 45.6215054,30.9913043 45.1924731,30.8478261 C39.6150538,28.1217391 36.1827957,23.2434783 36.1827957,17.9347826 C36.1827957,9.61304348 44.3344086,2.86956522 54.2021505,2.86956522 Z" id="Shape"></path>
                <path d="M43.3333333,19.5130435 C43.4763441,19.6565217 43.6193548,19.8 43.7623656,19.8 C43.9053763,19.9434783 44.0483871,19.9434783 44.3344086,19.9434783 C44.6204301,19.9434783 44.7634409,19.9434783 44.9064516,19.8 C45.0494624,19.6565217 45.1924731,19.6565217 45.3354839,19.5130435 C45.6215054,19.226087 45.7645161,18.9391304 45.7645161,18.5086957 C45.7645161,18.3652174 45.7645161,18.0782609 45.6215054,17.9347826 C45.6215054,17.7913043 45.4784946,17.6478261 45.3354839,17.5043478 C45.1924731,17.3608696 45.0494624,17.2173913 44.9064516,17.2173913 C44.6204301,17.073913 44.1913978,17.073913 43.7623656,17.2173913 C43.6193548,17.2173913 43.4763441,17.3608696 43.3333333,17.5043478 C43.1903226,17.6478261 43.0473118,17.7913043 43.0473118,17.9347826 C42.9043011,18.0782609 42.9043011,18.2217391 42.9043011,18.5086957 C42.9043011,18.7956522 42.9043011,18.9391304 43.0473118,19.0826087 C43.0473118,19.226087 43.1903226,19.3695652 43.3333333,19.5130435 Z" id="Path"></path>
                <path d="M54.2021505,19.9434783 C54.6311828,19.9434783 54.9172043,19.8 55.2032258,19.5130435 C55.4892473,19.226087 55.6322581,18.9391304 55.6322581,18.5086957 C55.6322581,18.3652174 55.6322581,18.0782609 55.4892473,17.9347826 C55.4892473,17.7913043 55.3462366,17.6478261 55.2032258,17.5043478 C54.6311828,16.9304348 53.7731183,16.9304348 53.2010753,17.5043478 C53.0580645,17.6478261 52.9150538,17.7913043 52.9150538,17.9347826 C52.772043,18.0782609 52.772043,18.2217391 52.772043,18.5086957 C52.772043,18.9391304 52.9150538,19.226087 53.2010753,19.5130435 C53.4870968,19.8 53.916129,19.9434783 54.2021505,19.9434783 Z" id="Path"></path>
                <path d="M64.0698925,19.9434783 C64.4989247,19.9434783 64.7849462,19.8 65.0709677,19.5130435 C65.3569892,19.226087 65.5,18.9391304 65.5,18.5086957 C65.5,18.0782609 65.3569892,17.7913043 65.0709677,17.5043478 C64.4989247,16.9304348 63.6408602,16.9304348 63.0688172,17.5043478 C62.7827957,17.7913043 62.6397849,18.0782609 62.6397849,18.5086957 C62.6397849,18.9391304 62.7827957,19.226087 63.0688172,19.5130435 C63.3548387,19.8 63.6408602,19.9434783 64.0698925,19.9434783 Z" id="Path"></path>
            </g>
        </g>
    </g>
</svg>