<?xml version="1.0" encoding="UTF-8"?>
<svg viewBox="0 0 166 116" version="1.1" xmlns="http://www.w3.org/2000/svg" xmlns:xlink="http://www.w3.org/1999/xlink">
    <!-- Generator: Sketch 53 (72520) - https://sketchapp.com -->
    <title>Artboard</title>
    <desc>Created with Sketch.</desc>
    <g id="Artboard" stroke="none" stroke-width="1" fill="none" fill-rule="evenodd">
        <g id="noun_complete_1885508" fill="#D8A143" fill-rule="nonzero">
            <path d="M150.415598,82.5384615 L145.943376,82.5384615 L145.943376,98.1538462 L16.2489316,98.1538462 L16.2489316,6.69230769 C16.2489316,5.46028787 17.2500727,4.46153846 18.4850427,4.46153846 L143.707265,4.46153846 C144.942235,4.46153846 145.943376,5.46028787 145.943376,6.69230769 L145.943376,33.4615385 L150.415598,33.4615385 L150.415598,6.69230769 C150.415598,2.99624821 147.412175,0 143.707265,0 L18.4850427,0 C14.7801325,0 11.7767094,2.99624821 11.7767094,6.69230769 L11.7767094,98.1538462 L0.596153846,98.1538462 L0.596153846,109.307692 C0.596153846,113.003752 3.59957698,116 7.30448718,116 L154.887821,116 C158.592731,116 161.596154,113.003752 161.596154,109.307692 L161.596154,98.1538462 L150.415598,98.1538462 L150.415598,82.5384615 Z M157.123932,102.615385 L157.123932,109.307692 C157.123932,110.539712 156.122791,111.538462 154.887821,111.538462 L7.30448718,111.538462 C6.06951711,111.538462 5.06837607,110.539712 5.06837607,109.307692 L5.06837607,102.615385 L74.3878205,102.615385 L74.3878205,104.846154 L87.8044872,104.846154 L87.8044872,102.615385 L157.123932,102.615385 Z" id="Shape"></path>
            <path d="M161.939093,44.6202592 L118.596154,33 L130.19942,76.3221315 L139.229199,67.1838694 L152.051485,80 L165.596154,66.4618339 L152.773868,53.6457033 L161.939093,44.6202592 Z M159.23016,66.6423428 L152.164357,73.7047528 L139.342071,60.8886222 L132.569737,67.6577052 L125.007297,39.4531925 L153.225357,47.0120019 L146.453022,53.781085 L159.23016,66.6423428 Z" id="Shape"></path>
            <path d="M47.5961538,51.5 C47.5961538,70.0015391 62.5946147,85 81.0961538,85 C99.597693,85 114.596154,70.0015391 114.596154,51.5 C114.596154,32.9984609 99.597693,18 81.0961538,18 C62.5946147,18 47.5961538,32.9984609 47.5961538,51.5 Z M110.129487,51.5 C110.129487,67.5346672 97.1308211,80.5333333 81.0961538,80.5333333 C65.0614866,80.5333333 52.0628205,67.5346672 52.0628205,51.5 C52.0628205,35.4653328 65.0614866,22.4666667 81.0961538,22.4666667 C97.1308211,22.4666667 110.129487,35.4653328 110.129487,51.5 L110.129487,51.5 Z" id="Shape"></path>
            <path d="M67.7163089,50.9353351 L64.5961538,54.2102518 L76.3532598,65.3901397 C76.7759335,65.7854605 77.3343277,66.0037288 77.9133373,65.9999518 L78.071606,65.9999518 C78.7115376,65.9574522 79.3032923,65.6454713 79.699513,65.1416978 L99.5961538,39.8006184 L96.0238024,37 L77.6646293,60.398715 L67.7163089,50.9353351 Z" id="Path"></path>
            <rect id="Rectangle" x="31.5961538" y="89" width="4" height="4"></rect>
            <rect id="Rectangle" x="23.5961538" y="81" width="4" height="4"></rect>
            <rect id="Rectangle" x="23.5961538" y="89" width="4" height="4"></rect>
            <rect id="Rectangle" x="125.596154" y="89" width="4" height="4"></rect>
            <rect id="Rectangle" x="134.596154" y="81" width="4" height="4"></rect>
            <rect id="Rectangle" x="134.596154" y="89" width="4" height="4"></rect>
            <rect id="Rectangle" x="31.5961538" y="9" width="4" height="4"></rect>
            <rect id="Rectangle" x="23.5961538" y="9" width="4" height="4"></rect>
            <rect id="Rectangle" x="23.5961538" y="18" width="4" height="4"></rect>
            <rect id="Rectangle" x="134.596154" y="9" width="4" height="4"></rect>
            <rect id="Rectangle" x="134.596154" y="18" width="4" height="4"></rect>
            <rect id="Rectangle" x="125.596154" y="9" width="4" height="4"></rect>
        </g>
    </g>
</svg>