<?xml version="1.0" encoding="UTF-8"?>
<svg viewBox="0 0 160 159" version="1.1" xmlns="http://www.w3.org/2000/svg" xmlns:xlink="http://www.w3.org/1999/xlink">
    <!-- Generator: Sketch 53 (72520) - https://sketchapp.com -->
    <title>Artboard</title>
    <desc>Created with Sketch.</desc>
    <g id="Artboard" stroke="none" stroke-width="1" fill="none" fill-rule="evenodd">
        <g id="noun_submitted-document_1595404" fill="#D8A143" fill-rule="nonzero">
            <g id="Group" transform="translate(0.500000, 0.159259)">
                <path d="M156.35,0 L50.35,0 C48.8864454,0 47.7,1.17898349 47.7,2.63333333 L47.7,47.4 L36.835,47.4 C29.4893416,47.3906193 22.5214263,50.634025 17.82655,56.248 C14.1422632,60.6516901 8.6780466,63.1991941 2.915,63.2 L0,63.2 L0,68.4666667 L2.915,68.4666667 C10.2606584,68.4760474 17.2285737,65.2326417 21.92345,59.6186667 C25.6107002,55.211433 31.0805676,52.6635584 36.84825,52.6666667 L47.35285,52.6666667 L81.0635,61.6015667 C82.9118753,62.0950016 84.3188964,63.5871356 84.6943536,65.4520563 C85.0698108,67.3169769 84.348774,69.2321725 82.8337,70.3942667 C81.5978365,71.3487472 79.9824122,71.6705803 78.4718,71.2632667 L48.3837,63.2895333 C47.1678372,62.966254 45.8908819,63.537435 45.32825,64.6562333 L43.1261,69.0328333 C40.0713937,75.1581791 33.7769581,79.024051 26.8975,79 L21.2,79 L21.2,84.2666667 L26.8975,84.2666667 C35.6640332,84.2916372 43.702632,79.4245285 47.7,71.6714333 L47.7,121.133333 L40.545,121.133333 C34.2493963,121.126097 28.34269,118.106039 24.6768,113.020033 C20.0187872,106.551434 12.5094427,102.709601 4.505,102.7 L0,102.7 L0,107.966667 L4.505,107.966667 C10.8006037,107.973903 16.70731,110.993961 20.3732,116.079967 C25.0312128,122.548566 32.5405573,126.390399 40.545,126.4 L47.7,126.4 L47.7,155.366667 C47.7,156.821017 48.8864454,158 50.35,158 L156.35,158 C157.813555,158 159,156.821017 159,155.366667 L159,2.63333333 C159,1.17898349 157.813555,0 156.35,0 Z M153.7,152.733333 L53,152.733333 L53,69.9624 L77.115,76.3508667 C80.2150744,77.16808 83.5212763,76.5087571 86.0640193,74.5662529 C88.6067623,72.6237486 90.0978494,69.6182285 90.1,66.4311 C90.0987776,61.7803972 86.9526555,57.710976 82.4309,56.5113333 L53,48.7166667 L53,5.26666667 L153.7,5.26666667 L153.7,152.733333 Z" id="Shape"></path>
                <rect id="Rectangle" x="76.85" y="13.1666667" width="53" height="5.26666667"></rect>
                <rect id="Rectangle" x="76.85" y="44.7666667" width="15.9" height="5.26666667"></rect>
                <rect id="Rectangle" x="98.05" y="44.7666667" width="29.15" height="5.26666667"></rect>
                <rect id="Rectangle" x="92.75" y="57.9333333" width="26.5" height="5.26666667"></rect>
                <rect id="Rectangle" x="92.75" y="71.1" width="47.7" height="5.26666667"></rect>
                <rect id="Rectangle" x="66.25" y="84.2666667" width="74.2" height="5.26666667"></rect>
                <rect id="Rectangle" x="132.5" y="44.7666667" width="7.95" height="5.26666667"></rect>
                <rect id="Rectangle" x="124.55" y="57.9333333" width="15.9" height="5.26666667"></rect>
                <rect id="Rectangle" x="66.25" y="97.4333333" width="53" height="5.26666667"></rect>
                <rect id="Rectangle" x="66.25" y="110.6" width="74.2" height="5.26666667"></rect>
                <rect id="Rectangle" x="66.25" y="123.766667" width="15.9" height="5.26666667"></rect>
                <rect id="Rectangle" x="87.45" y="123.766667" width="53" height="5.26666667"></rect>
                <rect id="Rectangle" x="124.55" y="97.4333333" width="15.9" height="5.26666667"></rect>
                <rect id="Rectangle" x="66.25" y="31.6" width="74.2" height="5.26666667"></rect>
            </g>
        </g>
    </g>
</svg>