<?xml version="1.0" encoding="UTF-8"?>
<svg viewBox="0 0 161 160" version="1.1" xmlns="http://www.w3.org/2000/svg" xmlns:xlink="http://www.w3.org/1999/xlink">
    <!-- Generator: Sketch 53 (72520) - https://sketchapp.com -->
    <title>Artboard</title>
    <desc>Created with Sketch.</desc>
    <g id="Artboard" stroke="none" stroke-width="1" fill="none" fill-rule="evenodd">
        <g id="noun_reviews_1467699" fill="#D8A143" fill-rule="nonzero">
            <path d="M160.62064,31.4117647 L160.62064,26.1764706 L147.878705,26.1764706 C146.469447,26.1764706 145.330317,27.3465588 145.330317,28.7941176 L136.191801,28.7941176 L127.491608,19.8574706 L127.491608,2.61764706 C127.491608,1.17008824 126.352479,0 124.943221,0 C116.510608,0 109.652898,7.04408824 109.652898,15.7058824 L109.652898,28.7941176 L90.5399949,28.7941176 C85.6216078,28.7941176 81.6206401,32.9038235 81.6206401,37.9558824 C81.6206401,40.5211765 82.6578336,42.8351765 84.3168336,44.5 C82.6578336,46.1648235 81.6206401,48.4788235 81.6206401,51.0441176 C81.6206401,54.3266471 83.325511,57.1903529 85.8586078,58.8080588 C84.8061239,60.3132059 84.1690272,62.1429412 84.1690272,64.1323529 C84.1690272,67.4148824 85.8738981,70.2785882 88.4069949,71.8962941 C87.354511,73.4014412 86.7174142,75.2311765 86.7174142,77.2205882 C86.7174142,82.2726471 90.718382,86.3823529 95.6367691,86.3823529 L145.330317,86.3823529 C145.330317,87.8299118 146.469447,89 147.878705,89 L160.62064,89 L160.62064,83.7647059 L150.427092,83.7647059 L150.427092,31.4117647 L160.62064,31.4117647 Z M95.6367691,81.1470588 C93.529253,81.1470588 91.8141884,79.3853824 91.8141884,77.2205882 C91.8141884,75.0557941 93.529253,73.2941176 95.6367691,73.2941176 L96.9109626,73.2941176 L99.4593497,73.2941176 L99.4593497,68.0588235 L96.9109626,68.0588235 L95.6367691,68.0588235 L93.088382,68.0588235 C90.9808659,68.0588235 89.2658013,66.2971471 89.2658013,64.1323529 C89.2658013,61.9675588 90.9808659,60.2058824 93.088382,60.2058824 L94.3625755,60.2058824 L96.9109626,60.2058824 L96.9109626,54.9705882 L94.3625755,54.9705882 L93.088382,54.9705882 L90.5399949,54.9705882 C88.4324788,54.9705882 86.7174142,53.2089118 86.7174142,51.0441176 C86.7174142,48.8793235 88.4324788,47.1176471 90.5399949,47.1176471 L94.3625755,47.1176471 L94.3625755,41.8823529 L90.5399949,41.8823529 C88.4324788,41.8823529 86.7174142,40.1206765 86.7174142,37.9558824 C86.7174142,35.7910882 88.4324788,34.0294118 90.5399949,34.0294118 L112.201285,34.0294118 C113.610543,34.0294118 114.749672,32.8593235 114.749672,31.4117647 L114.749672,15.7058824 C114.749672,10.8370588 118.001414,6.72997059 122.394834,5.56773529 L122.394834,20.9411765 C122.394834,21.6374706 122.662414,22.2997353 123.141511,22.7918529 L133.335059,33.2624412 C133.811608,33.7519412 134.458898,34.0294118 135.136769,34.0294118 L145.330317,34.0294118 L145.330317,81.1470588 L95.6367691,81.1470588 Z" id="Shape"></path>
            <path d="M81.6206401,122.044118 C81.6206401,119.478824 80.5571884,117.164824 78.8561884,115.5 C80.5571884,113.835176 81.6206401,111.521176 81.6206401,108.955882 C81.6206401,105.673353 79.8726078,102.809647 77.2727691,101.191941 C78.3518981,99.6867941 79.0077368,97.8570588 79.0077368,95.8676471 C79.0077368,92.5851176 77.2597046,89.7214118 74.6598659,88.1037059 C75.7389949,86.5985588 76.3948336,84.7688235 76.3948336,82.7794118 C76.3948336,77.7273529 72.2925755,73.6176471 67.2496723,73.6176471 L16.2980594,73.6176471 C16.2980594,72.1700882 15.1300917,71 13.6851562,71 L0.620640056,71 L0.620640056,76.2352941 L11.072253,76.2352941 L11.072253,128.588235 L0.620640056,128.588235 L0.620640056,133.823529 L13.6851562,133.823529 C15.1300917,133.823529 16.2980594,132.653441 16.2980594,131.205882 L25.6679304,131.205882 L34.588382,140.142529 L34.588382,157.382353 C34.588382,158.829912 35.7563497,160 37.2012852,160 C45.847382,160 52.8787046,152.955912 52.8787046,144.294118 L52.8787046,131.205882 L72.4754788,131.205882 C77.518382,131.205882 81.6206401,127.096176 81.6206401,122.044118 Z M72.4754788,125.970588 L50.2658013,125.970588 C48.8208659,125.970588 47.6528981,127.140676 47.6528981,128.588235 L47.6528981,144.294118 C47.6528981,149.162941 44.3188336,153.270029 39.8141884,154.432265 L39.8141884,139.058824 C39.8141884,138.362529 39.5372207,137.697647 39.0486078,137.208147 L28.5969949,126.737559 C28.1057691,126.245441 27.4447046,125.970588 26.7496723,125.970588 L16.2980594,125.970588 L16.2980594,78.8529412 L67.2496723,78.8529412 C69.4105433,78.8529412 71.1690272,80.6146176 71.1690272,82.7794118 C71.1690272,84.9442059 69.4105433,86.7058824 67.2496723,86.7058824 L65.9432207,86.7058824 L63.3303175,86.7058824 L63.3303175,91.9411765 L65.9432207,91.9411765 L67.2496723,91.9411765 L69.8625755,91.9411765 C72.0234465,91.9411765 73.7819304,93.7028529 73.7819304,95.8676471 C73.7819304,98.0324412 72.0234465,99.7941176 69.8625755,99.7941176 L68.5561239,99.7941176 L65.9432207,99.7941176 L65.9432207,105.029412 L68.5561239,105.029412 L69.8625755,105.029412 L72.4754788,105.029412 C74.6363497,105.029412 76.3948336,106.791088 76.3948336,108.955882 C76.3948336,111.120676 74.6363497,112.882353 72.4754788,112.882353 L68.5561239,112.882353 L68.5561239,118.117647 L72.4754788,118.117647 C74.6363497,118.117647 76.3948336,119.879324 76.3948336,122.044118 C76.3948336,124.208912 74.6363497,125.970588 72.4754788,125.970588 Z" id="Shape"></path>
            <path d="M80.9295773,26.1094891 C81.7544241,26.1094891 82.5792709,26.129927 83.3938072,26.1631387 L83.6206401,21.0587591 C82.7287744,21.020438 81.8317535,21 80.9295773,21 C52.3073926,21 27.7862433,41.2208029 22.6206401,69.0777372 L27.6908704,70 C32.4053855,44.570073 54.7948213,26.1094891 80.9295773,26.1094891 Z" id="Path"></path>
            <path d="M82.3117028,133.890511 C81.486856,133.890511 80.6620092,133.870073 79.8474729,133.836861 L79.6206401,138.941241 C80.5125057,138.979562 81.4095266,139 82.3117028,139 C110.93131,139 135.455037,118.779197 140.62064,90.9222628 L135.55041,90 C130.835895,115.429927 108.446459,133.890511 82.3117028,133.890511 Z" id="Path"></path>
        </g>
    </g>
</svg>