<?xml version="1.0" encoding="UTF-8"?>
<svg viewBox="0 0 92 100" version="1.1" xmlns="http://www.w3.org/2000/svg" xmlns:xlink="http://www.w3.org/1999/xlink">
    <g id="Artboard" stroke="none" stroke-width="1" fill="none" fill-rule="evenodd">
        <g id="noun_Community_1275968" fill="#D8A143" fill-rule="nonzero">
            <path d="M80,69.3 C76.8,69.3 74.3,71.9 74.3,75 C74.3,78.2 76.9,80.7 80,80.7 C83.2,80.7 85.7,78.1 85.7,75 C85.8,71.9 83.2,69.3 80,69.3 Z" id="Path"></path>
            <path d="M85.9,82.9 L74.1,82.9 C71.3,82.9 69.1,85.3 69.1,88.2 L69.1,93.1 L90.9,93.1 L90.9,88.2 C90.9,85.3 88.6,82.9 85.9,82.9 Z" id="Path"></path>
            <path d="M46.7,0.9 C43.5,0.9 41,3.5 41,6.6 C41,9.7 43.6,12.3 46.7,12.3 C49.8,12.3 52.4,9.7 52.4,6.6 C52.4,3.5 49.9,0.9 46.7,0.9 Z" id="Path"></path>
            <path d="M52.5,14.5 L40.8,14.5 C38,14.5 35.8,16.9 35.8,19.8 L35.8,24.7 L57.6,24.7 L57.6,19.8 C57.6,16.9 55.3,14.5 52.5,14.5 Z" id="Path"></path>
            <path d="M13,69.2 C9.8,69.2 7.2,71.8 7.2,75 C7.2,78.2 9.8,80.8 13,80.8 C16.2,80.8 18.8,78.2 18.8,75 C18.8,71.8 16.2,69.2 13,69.2 Z" id="Path"></path>
            <path d="M18.9,82.9 L7.1,82.9 C4.3,82.9 2,85.3 2,88.2 L2,93.1 L23.9,93.1 L23.9,88.2 C23.9,85.3 21.7,82.9 18.9,82.9 Z" id="Path"></path>
            <path d="M87.4,53.9 C87.5,58.4 86.8,62.8 85.6,66.9 L88.8,70 C90.7,64.9 91.6,59.5 91.5,53.8 C91.2,34.8 79.1,18.8 62.3,12.5 L62.4,16.9 C76.9,23.1 87.1,37.3 87.4,53.9 Z" id="Path"></path>
            <path d="M4.7,53.9 C4.6,58.4 5.3,62.8 6.5,66.9 L3.3,70 C1.4,64.9 0.5,59.5 0.6,53.8 C0.9,34.8 13,18.8 29.8,12.5 L29.7,16.9 C15.2,23.1 5,37.3 4.7,53.9 Z" id="Path"></path>
            <path d="M62.3,91.9 C57.4,94 52,95.2 46.3,95.2 C41.1,95.2 36,94.2 31.4,92.4 L28.3,95.5 C33.8,97.9 39.9,99.3 46.2,99.3 C53,99.3 59.5,97.8 65.2,95 L62.3,91.9 Z" id="Path"></path>
            <path d="M57.3,32.4 C57,32.2 56.7,32.2 56.4,32.3 L56.3,32.4 C56.1,32.5 56,32.6 55.9,32.8 L53.6,36.7 C53.5,36.9 53.4,37.2 53.5,37.5 C53.6,37.8 53.7,38 53.9,38.1 C54.2,38.3 54.6,38.3 55,38.1 C55.2,38 55.3,37.9 55.4,37.7 L57.7,33.8 C57.8,33.6 57.9,33.3 57.8,33 C57.6,32.8 57.5,32.6 57.3,32.4 Z" id="Path"></path>
            <path d="M36.1,32.4 C36.4,32.2 36.7,32.2 37,32.3 L37.1,32.4 C37.3,32.5 37.4,32.6 37.5,32.8 L39.8,36.7 C39.9,36.9 40,37.2 39.9,37.5 C39.8,37.8 39.7,38 39.5,38.1 C39.2,38.3 38.8,38.3 38.4,38.1 C38.2,38 38.1,37.9 38,37.7 L35.7,33.8 C35.6,33.6 35.5,33.3 35.6,33 C35.8,32.8 35.9,32.6 36.1,32.4 Z" id="Path"></path>
            <path d="M31.4,42.9 C31.5,42.9 31.6,42.9 31.7,42.8 C32,42.7 32.2,42.6 32.3,42.4 C32.6,41.9 32.4,41.2 31.9,41 L28,38.7 C27.8,38.6 27.7,38.5 27.5,38.5 L27.4,38.5 C27.1,38.5 26.8,38.7 26.6,39 C26.5,39.2 26.4,39.5 26.5,39.8 C26.6,40.1 26.7,40.3 26.9,40.4 L30.8,42.7 C31,42.8 31.2,42.9 31.4,42.9 Z" id="Path"></path>
            <path d="M67.3,39.1 C67.1,38.8 66.9,38.6 66.5,38.6 L66.4,38.6 C66.2,38.6 66.1,38.7 65.9,38.8 L62,41.1 C61.8,41.2 61.6,41.4 61.5,41.7 C61.4,42 61.4,42.2 61.6,42.5 C61.8,42.8 62.1,43 62.5,43 C62.7,43 62.8,42.9 63,42.9 L66.9,40.6 C67.1,40.5 67.3,40.3 67.3,40 C67.4,39.6 67.4,39.4 67.3,39.1 Z" id="Path"></path>
            <path d="M46.9,30.2 C46.6,30.2 46.3,30.4 46.1,30.6 L46,30.7 C45.9,30.9 45.9,31 45.9,31.2 L45.8,35.7 C45.8,36 45.9,36.2 46.1,36.4 C46.3,36.6 46.5,36.7 46.8,36.7 C47.2,36.7 47.5,36.5 47.7,36.2 C47.8,36 47.9,35.9 47.9,35.7 L48,31.2 C48,30.9 47.9,30.7 47.7,30.5 C47.4,30.3 47.2,30.2 46.9,30.2 Z" id="Path"></path>
            <path d="M34.1,66.5 L34.1,72.4 L60.3,72.4 L60.3,66.5 C60.3,62.9 57.6,60.2 54,60.2 L40.6,60.2 C37.1,60.1 34.1,62.9 34.1,66.5 Z" id="Path"></path>
            <path d="M47.3,57.4 C51.3,57.4 54.7,54.1 54.7,50 C54.7,45.9 51.4,42.6 47.3,42.6 C43.2,42.6 39.9,45.9 39.9,50 C40,54.2 43.2,57.4 47.3,57.4 Z" id="Path"></path>
            <path d="M30.1,58.6 C33.3,58.6 35.9,56 35.9,52.8 C35.9,49.6 33.4,47 30.1,47 C26.9,47 24.3,49.6 24.3,52.8 C24.4,56 27,58.6 30.1,58.6 Z" id="Path"></path>
            <path d="M64.4,58.6 C67.6,58.6 70.2,56 70.2,52.8 C70.2,49.6 67.6,47 64.4,47 C61.2,47 58.6,49.6 58.6,52.8 C58.6,56 61.3,58.6 64.4,58.6 Z" id="Path"></path>
            <path d="M24.9,60.7 C22.2,60.7 20,62.9 20,65.6 L20,70.2 L32.3,70.2 L32.3,66.4 C32.3,64 33.4,61.9 35,60.5 L24.9,60.5 L24.9,60.7 Z" id="Path"></path>
            <path d="M69.7,60.7 L59.8,60.7 C61.5,62.1 62.4,64.2 62.4,66.6 L62.4,70.4 L74.7,70.4 L74.7,65.7 C74.7,62.9 72.5,60.7 69.7,60.7 Z" id="Path"></path>
        </g>
    </g>
</svg>