<?xml version="1.0" encoding="UTF-8"?>
<svg width="100px" height="100px" viewBox="0 0 100 100" version="1.1" xmlns="http://www.w3.org/2000/svg" xmlns:xlink="http://www.w3.org/1999/xlink">
    <!-- Generator: Sketch 49.3 (51167) - http://www.bohemiancoding.com/sketch -->
    <title>intro-community</title>
    <desc>Created with Sketch.</desc>
    <defs></defs>
    <g id="intro-community" stroke="none" stroke-width="1" fill="none" fill-rule="evenodd">
        <g id="community" fill="#000000" fill-rule="nonzero">
            <path d="M50,79.1666667 C43.0964406,79.1666667 37.5,73.570226 37.5,66.6666667 C37.5,59.7631073 43.0964406,54.1666667 50,54.1666667 C56.9035594,54.1666667 62.5,59.7631073 62.5,66.6666667 C62.4931096,73.5673699 56.9007033,79.1597763 50,79.1666667 Z M50,58.3333333 C45.3976271,58.3333333 41.6666667,62.0642938 41.6666667,66.6666667 C41.6666667,71.2690396 45.3976271,75 50,75 C54.6023729,75 58.3333333,71.2690396 58.3333333,66.6666667 C58.3333333,62.0642938 54.6023729,58.3333333 50,58.3333333 Z" id="Shape"></path>
            <path d="M64.5833333,100 L35.4166667,100 C34.2660734,100 33.3333333,99.0672599 33.3333333,97.9166667 L33.3333333,85.4166667 C33.3402211,79.6665559 37.9998893,75.0068877 43.75,75 L56.25,75 C62.0001107,75.0068877 66.6597789,79.6665559 66.6666667,85.4166667 L66.6666667,97.9166667 C66.6666667,98.469201 66.4471732,98.999105 66.0564725,99.3898058 C65.6657717,99.7805066 65.1358677,100 64.5833333,100 Z M37.5,95.8333333 L62.5,95.8333333 L62.5,85.4166667 C62.5,81.964887 59.7017797,79.1666667 56.25,79.1666667 L43.75,79.1666667 C40.2982203,79.1666667 37.5,81.964887 37.5,85.4166667 L37.5,95.8333333 Z" id="Shape"></path>
            <path d="M83.3333333,68.75 C76.429774,68.75 70.8333333,63.1535594 70.8333333,56.25 C70.8333333,49.3464406 76.429774,43.75 83.3333333,43.75 C90.2368927,43.75 95.8333333,49.3464406 95.8333333,56.25 C95.826443,63.1507033 90.2340366,68.7431096 83.3333333,68.75 Z M83.3333333,47.9166667 C78.7309604,47.9166667 75,51.6476271 75,56.25 C75,60.8523729 78.7309604,64.5833333 83.3333333,64.5833333 C87.9357062,64.5833333 91.6666667,60.8523729 91.6666667,56.25 C91.6666667,51.6476271 87.9357062,47.9166667 83.3333333,47.9166667 Z" id="Shape"></path>
            <path d="M97.9166667,89.5833333 L70.8333333,89.5833333 L70.8333333,85.4166667 L95.8333333,85.4166667 L95.8333333,75 C95.8333333,71.5482203 93.035113,68.75 89.5833333,68.75 L77.0833333,68.75 C73.6315536,68.75 70.8333333,71.5482203 70.8333333,75 L66.6666667,75 C66.6735544,69.2498893 71.3332226,64.5902211 77.0833333,64.5833333 L89.5833333,64.5833333 C95.3334441,64.5902211 99.9931123,69.2498893 100,75 L100,87.5 C100,88.6505932 99.0672599,89.5833333 97.9166667,89.5833333 Z" id="Shape"></path>
            <path d="M16.6666667,68.75 C9.76310729,68.75 4.16666667,63.1535594 4.16666667,56.25 C4.16666667,49.3464406 9.76310729,43.75 16.6666667,43.75 C23.570226,43.75 29.1666667,49.3464406 29.1666667,56.25 C29.1597763,63.1507033 23.5673699,68.7431096 16.6666667,68.75 Z M16.6666667,47.9166667 C12.0642938,47.9166667 8.33333333,51.6476271 8.33333333,56.25 C8.33333333,60.8523729 12.0642938,64.5833333 16.6666667,64.5833333 C21.2690396,64.5833333 25,60.8523729 25,56.25 C25,51.6476271 21.2690396,47.9166667 16.6666667,47.9166667 Z" id="Shape"></path>
            <path d="M29.1666667,89.5833333 L2.08333333,89.5833333 C0.932740105,89.5833333 1.40907031e-16,88.6505932 0,87.5 L0,75 C0.00688774236,69.2498893 4.66655594,64.5902211 10.4166667,64.5833333 L22.9166667,64.5833333 C28.6667774,64.5902211 33.3264456,69.2498893 33.3333333,75 L29.1666667,75 C29.1666667,71.5482203 26.3684464,68.75 22.9166667,68.75 L10.4166667,68.75 C6.96488698,68.75 4.16666667,71.5482203 4.16666667,75 L4.16666667,85.4166667 L29.1666667,85.4166667 L29.1666667,89.5833333 Z" id="Shape"></path>
            <path d="M39.5833333,50 C39.0308441,49.999882 38.5010265,49.7803112 38.1104167,49.3895833 L26.2208333,37.5 L6.25,37.5 C2.79822031,37.5 4.22721094e-16,34.7017797 0,31.25 L0,6.25 C-4.22721094e-16,2.79822031 2.79822031,6.34081642e-16 6.25,0 L52.0833333,0 C55.535113,2.11360547e-16 58.3333333,2.79822031 58.3333333,6.25 L58.3333333,31.25 C58.3333333,34.7017797 55.535113,37.5 52.0833333,37.5 L41.6666667,37.5 L41.6666667,47.9166667 C41.6668787,48.7592273 41.159564,49.518966 40.38125,49.8416667 C40.1284755,49.9470535 39.8571956,50.0008845 39.5833333,50 Z M6.25,4.16666667 C5.09940677,4.16666667 4.16666667,5.09940677 4.16666667,6.25 L4.16666667,31.25 C4.16666667,32.4005932 5.09940677,33.3333333 6.25,33.3333333 L27.0833333,33.3333333 C27.6358225,33.3334513 28.1656401,33.5530221 28.55625,33.94375 L37.5,42.8875 L37.5,35.4166667 C37.5,34.2660734 38.4327401,33.3333333 39.5833333,33.3333333 L52.0833333,33.3333333 C53.2339266,33.3333333 54.1666667,32.4005932 54.1666667,31.25 L54.1666667,6.25 C54.1666667,5.09940677 53.2339266,4.16666667 52.0833333,4.16666667 L6.25,4.16666667 Z" id="Shape"></path>
            <path d="M70.8333333,39.5833333 C69.6827401,39.5833333 68.75,38.6505932 68.75,37.5 L68.75,31.25 L62.5,31.25 L62.5,27.0833333 L70.8333333,27.0833333 C71.9839266,27.0833333 72.9166667,28.0160734 72.9166667,29.1666667 L72.9166667,31.25 L75.4166667,27.9166667 C75.8101133,27.3920712 76.427589,27.0833333 77.0833333,27.0833333 L93.75,27.0833333 C94.9005932,27.0833333 95.8333333,26.1505932 95.8333333,25 L95.8333333,16.6666667 C95.8333333,15.5160734 94.9005932,14.5833333 93.75,14.5833333 L62.5,14.5833333 L62.5,10.4166667 L93.75,10.4166667 C97.2017797,10.4166667 100,13.214887 100,16.6666667 L100,25 C100,28.4517797 97.2017797,31.25 93.75,31.25 L78.125,31.25 L72.5,38.75 C72.1065534,39.2745955 71.4890777,39.5833333 70.8333333,39.5833333 Z" id="Shape"></path>
            <rect id="Rectangle-path" x="70.8333333" y="18.75" width="20.8333333" height="4.16666667"></rect>
            <rect id="Rectangle-path" x="62.5" y="18.75" width="4.16666667" height="4.16666667"></rect>
            <path d="M14.5833333,25 C11.1315536,25 8.33333333,22.2017797 8.33333333,18.75 C8.33333333,15.2982203 11.1315536,12.5 14.5833333,12.5 C18.035113,12.5 20.8333333,15.2982203 20.8333333,18.75 C20.8333333,20.4076031 20.1748531,21.997315 19.0027507,23.1694174 C17.8306484,24.3415197 16.2409364,25 14.5833333,25 Z M14.5833333,16.6666667 C13.4327401,16.6666667 12.5,17.5994068 12.5,18.75 C12.5,19.9005932 13.4327401,20.8333333 14.5833333,20.8333333 C15.7339266,20.8333333 16.6666667,19.9005932 16.6666667,18.75 C16.6666667,17.5994068 15.7339266,16.6666667 14.5833333,16.6666667 Z" id="Shape"></path>
            <path d="M29.1666667,25 C25.714887,25 22.9166667,22.2017797 22.9166667,18.75 C22.9166667,15.2982203 25.714887,12.5 29.1666667,12.5 C32.6184464,12.5 35.4166667,15.2982203 35.4166667,18.75 C35.4166667,20.4076031 34.7581864,21.997315 33.586084,23.1694174 C32.4139817,24.3415197 30.8242697,25 29.1666667,25 Z M29.1666667,16.6666667 C28.0160734,16.6666667 27.0833333,17.5994068 27.0833333,18.75 C27.0833333,19.9005932 28.0160734,20.8333333 29.1666667,20.8333333 C30.3172599,20.8333333 31.25,19.9005932 31.25,18.75 C31.25,17.5994068 30.3172599,16.6666667 29.1666667,16.6666667 Z" id="Shape"></path>
            <path d="M43.75,25 C40.2982203,25 37.5,22.2017797 37.5,18.75 C37.5,15.2982203 40.2982203,12.5 43.75,12.5 C47.2017797,12.5 50,15.2982203 50,18.75 C50,20.4076031 49.3415197,21.997315 48.1694174,23.1694174 C46.997315,24.3415197 45.4076031,25 43.75,25 Z M43.75,16.6666667 C42.5994068,16.6666667 41.6666667,17.5994068 41.6666667,18.75 C41.6666667,19.9005932 42.5994068,20.8333333 43.75,20.8333333 C44.9005932,20.8333333 45.8333333,19.9005932 45.8333333,18.75 C45.8333333,17.5994068 44.9005932,16.6666667 43.75,16.6666667 Z" id="Shape"></path>
        </g>
    </g>
</svg>