<?xml version="1.0" encoding="UTF-8"?>
<svg width="101px" height="100px" viewBox="0 0 101 100" version="1.1" xmlns="http://www.w3.org/2000/svg" xmlns:xlink="http://www.w3.org/1999/xlink">
    <!-- Generator: Sketch 49.3 (51167) - http://www.bohemiancoding.com/sketch -->
    <title>intro-funding</title>
    <desc>Created with Sketch.</desc>
    <defs></defs>
    <g id="intro-funding" stroke="none" stroke-width="1" fill="none" fill-rule="evenodd">
        <g id="fund" transform="translate(-1.000000, 0.000000)" fill="#000000" fill-rule="nonzero">
            <path d="M89.6598387,12.2683333 C89.0826035,10.7427237 87.9164745,9.5151369 86.4253065,8.86333333 C84.9131054,8.18939267 83.1942647,8.15395561 81.6557419,8.765 C80.2147807,9.3338092 79.0463194,10.4356576 78.3913065,11.8433333 C71.473732,4.29520368 61.7205731,-0.000366024336 51.5,-0.000366024336 C41.2794269,-0.000366024336 31.526268,4.29520368 24.6086935,11.8433333 C23.9536806,10.4356576 22.7852193,9.3338092 21.3442581,8.765 C19.8060414,8.15225307 18.086519,8.18770419 16.5746935,8.86333333 C15.0840717,9.51506699 13.9180966,10.7418911 13.3401613,12.2666667 L3.55516129,38.015 C0.9443737,44.8617551 1.02931304,52.4488008 3.79272581,59.235 L8.93940323,71.6666667 L8.30645161,71.6666667 C7.3889463,71.6666667 6.64516129,72.4128588 6.64516129,73.3333333 L6.64516129,86.6666667 C6.64516129,87.5871412 7.3889463,88.3333333 8.30645161,88.3333333 L8.30645161,100 L11.6290323,100 L11.6290323,88.3333333 L28.2419355,88.3333333 L28.2419355,100 L31.5645161,100 L31.5645161,88.3333333 C32.4820214,88.3333333 33.2258065,87.5871412 33.2258065,86.6666667 L33.2258065,73.3333333 C33.2258065,72.4128588 32.4820214,71.6666667 31.5645161,71.6666667 L31.5645161,67.39 C43.6816185,75.3130197 59.3183815,75.3130197 71.4354839,67.39 L71.4354839,71.6666667 C70.5179786,71.6666667 69.7741935,72.4128588 69.7741935,73.3333333 L69.7741935,86.6666667 C69.7741935,87.5871412 70.5179786,88.3333333 71.4354839,88.3333333 L71.4354839,100 L74.7580645,100 L74.7580645,88.3333333 L91.3709677,88.3333333 L91.3709677,100 L94.6935484,100 L94.6935484,88.3333333 C95.6110537,88.3333333 96.3548387,87.5871412 96.3548387,86.6666667 L96.3548387,73.3333333 C96.3548387,72.4128588 95.6110537,71.6666667 94.6935484,71.6666667 L94.0605968,71.6666667 L99.2105968,59.2233333 C101.969943,52.4394683 102.053095,44.8564574 99.4431774,38.0133333 L89.6598387,12.2683333 Z M51.5,3.33333333 C62.1499466,3.35196188 72.150389,8.47302822 78.4129032,17.115 L78.4212097,17.115 L82.8452258,27.5683333 C82.6428294,27.5344317 82.4387419,27.5116201 82.233871,27.5 C81.5033742,27.5025406 80.780031,27.64451 80.1024355,27.9183333 C76.264737,15.2949873 64.6548621,6.67030311 51.5,6.67030311 C38.3451379,6.67030311 26.735263,15.2949873 22.8975645,27.9183333 C22.219969,27.64451 21.4966258,27.5025406 20.766129,27.5 C20.5619353,27.5094725 20.3584047,27.5300583 20.1564355,27.5616667 L24.5870968,17.1083333 L24.5954032,17.1083333 C30.8576148,8.47125044 40.8541746,3.35306887 51.5,3.33333333 Z M26.5806452,45.94 L26.5806452,33.3333333 C26.5764064,32.2585417 26.2731945,31.2062756 25.7051452,30.295 C28.6208373,18.3791969 39.2699935,10.0010263 51.5,10.0010263 C63.7300065,10.0010263 74.3791627,18.3791969 77.2948548,30.295 C76.7268055,31.2062756 76.4235936,32.2585417 76.4193548,33.3333333 L76.4193548,45.94 C72.5523394,56.3917624 62.6125835,63.3270594 51.5,63.3270594 C40.3874165,63.3270594 30.4476606,56.3917624 26.5806452,45.94 Z M29.9032258,75 L29.9032258,85 L9.96774194,85 L9.96774194,75 L29.9032258,75 Z M12.5394194,71.6666667 L6.86777419,57.9666667 C4.42464183,51.9653144 4.35039329,45.2559569 6.6601129,39.2016667 L16.4467742,13.455 C16.7101358,12.7630241 17.240911,12.2070919 17.9186774,11.9133333 C18.6185147,11.597859 19.4161707,11.5816136 20.1281935,11.8683333 C20.8258372,12.1361785 21.3844104,12.6779 21.6748548,13.3683333 C21.9580787,14.0331341 21.9580787,14.7851993 21.6748548,15.45 L15.7772742,29.3833333 C15.2634656,30.6014742 14.9882203,31.9074623 14.9665645,33.23 C14.9665645,33.265 14.9565968,33.2966667 14.9565968,33.33 C14.9565968,33.365 14.9565968,33.3983333 14.9565968,33.4333333 L14.9565968,53.3333333 L18.2791774,53.3333333 L18.2791774,33.4366667 C18.2791774,33.215 18.3240323,33 18.3439677,32.7816667 C18.6385525,31.5569606 19.7954811,30.7435196 21.0434881,30.8836234 C22.291495,31.0237273 23.2405921,32.073595 23.2580645,33.3333333 L23.2580645,46.2616667 C23.2603882,48.0866118 23.6834122,49.8862887 24.4940645,51.52 C26.9523249,56.4655881 28.2351503,61.915274 28.2419355,67.4416667 L28.2419355,71.6666667 L12.5394194,71.6666667 Z M51.5,70 C44.1971053,70.0226161 37.0950789,67.6022591 31.3169839,63.1216667 C31.1131913,61.3381113 30.7879254,59.5706455 30.3434677,57.8316667 C35.9410258,63.4863462 43.5563172,66.6664117 51.5,66.6664117 C59.4436828,66.6664117 67.0589742,63.4863462 72.6565323,57.8316667 C72.2120746,59.5706455 71.8868087,61.3381113 71.6830161,63.1216667 C65.9049211,67.6022591 58.8028947,70.0226161 51.5,70 Z M93.0322581,75 L93.0322581,85 L73.0967742,85 L73.0967742,75 L93.0322581,75 Z M96.1372097,57.955 L90.4605806,71.6666667 L74.7580645,71.6666667 L74.7580645,67.4416667 C74.7650148,61.9147604 76.0478247,56.4645704 78.5059355,51.5183333 C79.3169647,49.8853533 79.740017,48.0861262 79.7419355,46.2616667 L79.7419355,33.3333333 C79.7492755,32.0656627 80.7012076,31.0041644 81.9569884,30.8633307 C83.2127692,30.722497 84.3748411,31.5469132 84.6610161,32.7816667 C84.6809516,33 84.7258065,33.215 84.7258065,33.4366667 L84.7258065,53.3333333 L88.0483871,53.3333333 L88.0483871,33.4366667 C88.0483871,33.4016667 88.0483871,33.3683333 88.0483871,33.3333333 C88.0483871,33.3 88.0384194,33.2683333 88.0384194,33.2333333 C88.0167636,31.9107956 87.7415183,30.6048076 87.2277097,29.3866667 L81.330129,15.4533333 C81.0469052,14.7885326 81.0469052,14.0364674 81.330129,13.3716667 C81.6205735,12.6812334 82.1791466,12.1395118 82.8767903,11.8716667 C83.5890231,11.5861018 84.3862127,11.6023378 85.0863065,11.9166667 C85.7640729,12.2104253 86.2948481,12.7663575 86.5582097,13.4583333 L96.3432097,39.205 C98.6506854,45.2544179 98.5770346,51.9580773 96.1372097,57.955 Z" id="Shape"></path>
            <rect id="Rectangle-path" x="86.3870968" y="78.3333333" width="3.32258065" height="3.33333333"></rect>
            <rect id="Rectangle-path" x="13.2903226" y="78.3333333" width="3.32258065" height="3.33333333"></rect>
            <path d="M49.8387097,46.625 L49.8387097,50 L53.1612903,50 L53.1612903,46.625 C55.6483422,46.4405836 57.6834384,44.5664147 58.0789834,42.0961786 C58.4745284,39.6259426 57.1269264,37.2066098 54.8225806,36.25 L49.4566129,34 C48.5515226,33.6132696 48.0411077,32.6424727 48.2340391,31.6746939 C48.4269705,30.7069151 49.2703016,30.0077437 50.2540323,30 L52.7459677,30 C53.8920908,30.0018353 54.8207512,30.9335012 54.8225806,32.0833333 L54.8225806,33.3333333 L58.1451613,33.3333333 L58.1451613,32.0833333 C58.1366535,29.2613574 55.9662088,26.9205785 53.1612903,26.7083333 L53.1612903,23.3333333 L49.8387097,23.3333333 L49.8387097,26.7083333 C47.3516578,26.8927498 45.3165616,28.7669186 44.9210166,31.2371547 C44.5254716,33.7073907 45.8730736,36.1267235 48.1774194,37.0833333 L53.5433871,39.3333333 C54.4484774,39.7200637 54.9588923,40.6908606 54.7659609,41.6586394 C54.5730295,42.6264182 53.7296984,43.3255897 52.7459677,43.3333333 L50.2540323,43.3333333 C49.1079092,43.331498 48.1792488,42.3998322 48.1774194,41.25 L48.1774194,40 L44.8548387,40 L44.8548387,41.25 C44.8633465,44.0719759 47.0337912,46.4127548 49.8387097,46.625 Z" id="Shape"></path>
            <rect id="Rectangle-path" x="63.1290323" y="35" width="3.32258065" height="3.33333333"></rect>
            <rect id="Rectangle-path" x="36.5483871" y="35" width="3.32258065" height="3.33333333"></rect>
        </g>
    </g>
</svg>