<?xml version="1.0" encoding="UTF-8"?>
<svg width="108px" height="100px" viewBox="0 0 108 100" version="1.1" xmlns="http://www.w3.org/2000/svg" xmlns:xlink="http://www.w3.org/1999/xlink">
    <!-- Generator: Sketch 49.3 (51167) - http://www.bohemiancoding.com/sketch -->
    <title>intro-teams</title>
    <desc>Created with Sketch.</desc>
    <defs></defs>
    <g id="intro-teams" stroke="none" stroke-width="1" fill="none" fill-rule="evenodd">
        <g id="team" fill="#000000" fill-rule="nonzero">
            <path d="M88.65936,57.311828 C88.10586,46.2897849 82.19934,36.105914 72.8622,30.072043 L74.77218,27.1408602 C85.05216,33.7844086 91.55376,44.9983871 92.16342,57.1376344 L88.65936,57.311828 Z" id="Shape"></path>
            <path d="M54,97.1155914 C47.88558,97.1155914 42.03306,95.7123656 36.60606,92.9446237 L38.20554,89.8344086 C43.13304,92.3478495 48.44664,93.6215054 54,93.6215054 C59.55228,93.6215054 64.86642,92.3473118 69.79392,89.833871 L71.39448,92.9430108 C65.96694,95.7107527 60.11442,97.1155914 54,97.1155914 Z" id="Shape"></path>
            <path d="M19.34118,57.3134409 L15.83658,57.1387097 C16.44678,44.9973118 22.94784,33.783871 33.22836,27.1408602 L35.13834,30.072043 C25.80066,36.1048387 19.89468,46.2887097 19.34118,57.3134409 Z" id="Shape"></path>
            <g id="Group" transform="translate(41.580000, 15.053763)">
                <path d="M21.15828,25.7112903 C20.9871,24.5822581 20.46978,23.5607527 19.6641,22.7580645 C18.66672,21.7666667 17.34102,21.2198925 15.92946,21.2198925 L8.90298,21.2198925 C7.49628,21.2198925 6.17274,21.7666667 5.1759,22.7580645 C4.37022,23.5612903 3.8529,24.5827957 3.68172,25.7112903 L0.21222,25.1897849 C0.49626,23.3172043 1.35486,21.6225806 2.69514,20.2876344 C4.35456,18.6354839 6.55938,17.7258065 8.90352,17.7258065 L15.93,17.7258065 C18.27954,17.7258065 20.48652,18.6354839 22.1454,20.2876344 C23.48568,21.622043 24.34428,23.3166667 24.62832,25.1897849 L21.15828,25.7112903 Z" id="Shape"></path>
                <path d="M12.42,15.3403226 C8.1972,15.3403226 4.76172,11.9209677 4.76172,7.7172043 C4.76172,3.51290323 8.1972,0.0924731183 12.42,0.0924731183 C16.64172,0.0924731183 20.07666,3.51290323 20.07666,7.7172043 C20.07666,11.9209677 16.64172,15.3403226 12.42,15.3403226 Z M12.42,3.58655914 C10.13256,3.58655914 8.27118,5.43978495 8.27118,7.7172043 C8.27118,9.99408602 10.13256,11.8467742 12.42,11.8467742 C14.7069,11.8467742 16.56774,9.99462366 16.56774,7.7172043 C16.56774,5.43978495 14.7069,3.58655914 12.42,3.58655914 Z" id="Shape"></path>
            </g>
            <g id="Group" transform="translate(72.900000, 69.354839)">
                <path d="M3.94524,25.8677419 L0.4752,25.3462366 C0.75924,23.4725806 1.61784,21.7763441 2.95812,20.4430108 C4.61592,18.7913978 6.82128,17.8822581 9.1665,17.8822581 L16.19244,17.8822581 C18.53766,17.8822581 20.74302,18.7908602 22.40082,20.4430108 C23.75244,21.7903226 24.61104,23.4908602 24.88536,25.3629032 L21.41208,25.866129 C21.24738,24.744086 20.73114,23.7231183 19.91844,22.9123656 C18.92376,21.922043 17.60022,21.3763441 16.19244,21.3763441 L9.1665,21.3763441 C7.75872,21.3763441 6.43464,21.9225806 5.43942,22.9134409 C4.6332,23.716129 4.11642,24.7376344 3.94524,25.8677419 Z" id="Shape"></path>
                <path d="M12.67974,15.4973118 C8.45694,15.4973118 5.02146,12.077957 5.02146,7.87365591 C5.02146,3.66935484 8.4564,0.248924731 12.67974,0.248924731 C16.90146,0.248924731 20.3364,3.66935484 20.3364,7.87365591 C20.3364,12.077957 16.902,15.4973118 12.67974,15.4973118 Z M12.67974,3.74354839 C10.3923,3.74354839 8.53038,5.59623656 8.53038,7.87419355 C8.53038,10.1510753 10.39176,12.0037634 12.67974,12.0037634 C14.96664,12.0037634 16.82748,10.1516129 16.82748,7.87419355 C16.82748,5.59623656 14.96718,3.74354839 12.67974,3.74354839 Z" id="Shape"></path>
            </g>
            <g id="Group" transform="translate(9.720000, 69.354839)">
                <path d="M21.43476,25.8677419 C21.26358,24.7370968 20.74626,23.716129 19.94058,22.9134409 C18.94536,21.922043 17.62182,21.3763441 16.2135,21.3763441 L9.18756,21.3763441 C7.77978,21.3763441 6.4557,21.9225806 5.46048,22.9134409 C4.64886,23.7231183 4.13262,24.744086 3.96792,25.866129 L0.49518,25.3629032 C0.7695,23.4908602 1.62756,21.7897849 2.97864,20.4435484 C4.63698,18.7913978 6.84288,17.8822581 9.18756,17.8822581 L16.2135,17.8822581 C18.55818,17.8822581 20.76408,18.7908602 22.42188,20.4430108 C23.76216,21.7763441 24.62076,23.4725806 24.9048,25.3462366 L21.43476,25.8677419 Z" id="Shape"></path>
                <path d="M12.70026,15.4973118 C8.47854,15.4973118 5.0436,12.077957 5.0436,7.87365591 C5.0436,3.66935484 8.478,0.248924731 12.70026,0.248924731 C16.92306,0.248924731 20.35854,3.66935484 20.35854,7.87365591 C20.35854,12.077957 16.92252,15.4973118 12.70026,15.4973118 Z M12.70026,3.74354839 C10.41336,3.74354839 8.55306,5.59623656 8.55306,7.87419355 C8.55306,10.1510753 10.41336,12.0037634 12.70026,12.0037634 C14.9877,12.0037634 16.84908,10.1516129 16.84908,7.87419355 C16.84908,5.59623656 14.9877,3.74354839 12.70026,3.74354839 Z" id="Shape"></path>
            </g>
            <g id="Group" transform="translate(43.740000, 47.849462)">
                <rect id="Rectangle-path" x="8.50554" y="0.464516129" width="3.50892" height="10.755914"></rect>
                <rect id="Rectangle-path" transform="translate(5.579630, 13.907882) rotate(59.999272) translate(-5.579630, -13.907882) " x="3.82520906" y="8.52869899" width="3.5088428" height="10.7583655"></rect>
                <rect id="Rectangle-path" transform="translate(14.936600, 13.913549) rotate(30.005690) translate(-14.936600, -13.913549) " x="9.53347828" y="12.1667255" width="10.8062426" height="3.49364622"></rect>
            </g>
            <g id="Group">
                <path d="M54,45.0930108 C41.63778,45.0930108 31.57974,35.0795699 31.57974,22.7709677 C31.57974,10.4623656 41.63778,0.448924731 54,0.448924731 C66.36222,0.448924731 76.42026,10.4623656 76.42026,22.7709677 C76.42026,35.0795699 66.36222,45.0930108 54,45.0930108 Z M54,3.94301075 C43.5726,3.94301075 35.0892,12.3892473 35.0892,22.7709677 C35.0892,33.1526882 43.5726,41.5989247 54,41.5989247 C64.4274,41.5989247 72.91134,33.1526882 72.91134,22.7709677 C72.91134,12.3892473 64.4274,3.94301075 54,3.94301075 Z" id="Shape"></path>
                <path d="M85.57974,99.5505376 C73.21698,99.5505376 63.15948,89.5370968 63.15948,77.2284946 C63.15948,64.9204301 73.21698,54.9064516 85.57974,54.9064516 C97.94196,54.9064516 108,64.9204301 108,77.2284946 C108,89.5370968 97.94196,99.5505376 85.57974,99.5505376 Z M85.57974,58.4010753 C75.15234,58.4010753 66.6684,66.8473118 66.6684,77.2290323 C66.6684,87.6107527 75.15234,96.0575269 85.57974,96.0575269 C96.00714,96.0575269 104.49054,87.6107527 104.49054,77.2290323 C104.49054,66.8473118 96.00714,58.4010753 85.57974,58.4010753 Z" id="Shape"></path>
                <path d="M22.42026,99.5494624 C10.0575,99.5494624 0,89.5360215 0,77.2290323 C0,64.9209677 10.0575,54.9069892 22.42026,54.9069892 C34.78302,54.9069892 44.84052,64.9209677 44.84052,77.2290323 C44.83998,89.5360215 34.78248,99.5494624 22.42026,99.5494624 Z M22.42026,58.4010753 C11.99286,58.4010753 3.50946,66.8473118 3.50946,77.2290323 C3.50946,87.6102151 11.99286,96.055914 22.42026,96.055914 C32.84766,96.055914 41.33106,87.6102151 41.33106,77.2290323 C41.33106,66.8473118 32.84712,58.4010753 22.42026,58.4010753 Z" id="Shape"></path>
            </g>
        </g>
    </g>
</svg>