<?xml version="1.0" encoding="UTF-8"?>
<svg viewBox="0 0 196 196" version="1.1" xmlns="http://www.w3.org/2000/svg" xmlns:xlink="http://www.w3.org/1999/xlink">
    <!-- Generator: Sketch 49.3 (51167) - http://www.bohemiancoding.com/sketch -->
    <title>logo-icon</title>
    <desc>Created with Sketch.</desc>
    <defs>
        <polygon id="path-1" points="0.0922 0.88 88.109752 0.88 88.109752 64.3479 0.0922 64.3479"></polygon>
        <polygon id="path-3" points="0.08 0.680763618 83.5551 0.680763618 83.5551 143.3444 0.08 143.3444"></polygon>
    </defs>
    <g id="logo-icon" stroke="none" stroke-width="1" fill="none" fill-rule="evenodd">
        <g id="Group-124" transform="translate(37.000000, 0.000000)">
            <g id="Group-112" transform="translate(17.000000, 0.000000)">
                <mask id="mask-2" fill="white">
                    <use xlink:href="#path-1"></use>
                </mask>
                <g id="Clip-111"></g>
                <path d="M2.3372,63.1539 C4.4862,61.9229 6.6992,60.5359 8.8392,59.1949 C11.6782,57.4159 14.6132,55.5879 17.7592,53.8489 L17.8222,46.0179 C17.8832,38.5309 20.7242,31.5339 25.8212,26.3159 C30.8262,21.1939 37.4522,18.4399 44.3922,18.4669 C58.9252,18.5929 70.6472,31.1659 70.5242,46.4909 L70.4652,53.8649 C73.3562,55.5369 76.3562,57.3579 79.5492,59.3939 C82.6142,61.3479 85.3552,63.0309 87.9642,64.3479 L88.1082,46.6349 C88.3102,21.6169 68.7682,1.0939 44.5462,0.8829 C32.6752,0.7369 21.6252,5.4469 13.2432,14.0259 C4.9542,22.5109 0.3362,33.8199 0.2382,45.8759 L0.0922,64.0559 L0.7052,64.0609 C1.2382,63.7729 1.7792,63.4739 2.3372,63.1539" id="Fill-110" fill="#2D2A26" mask="url(#mask-2)"></path>
            </g>
            <path d="M113.2718,77.175 C106.0318,76.586 99.9128,73.289 92.9628,68.93 L92.9628,79.897 C99.0598,83.357 105.1918,85.944 112.3938,86.497 C112.4698,86.566 112.7628,87.037 112.7068,87.929 C112.5028,91.193 112.2798,94.114 112.0248,96.86 C110.5448,112.764 107.4748,126.398 102.6378,138.538 C100.0008,145.155 96.7518,151.298 92.9628,156.951 L92.9628,172.405 C100.6338,163.64 106.8248,153.445 111.3778,142.02 C116.5528,129.031 119.8288,114.543 121.3908,97.729 C121.6558,94.889 121.8858,91.876 122.0958,88.515 C122.4708,82.492 118.6778,77.616 113.2718,77.175" id="Fill-113" fill="#2D2A26"></path>
            <path d="M83.5551,168.7681 C83.4481,168.8811 83.3481,169.0011 83.2411,169.1141 L83.5551,169.4141 L83.5551,168.7681 Z" id="Fill-115" fill="#3A3A3A"></path>
            <g id="Group-119" transform="translate(0.000000, 52.000000)">
                <mask id="mask-4" fill="white">
                    <use xlink:href="#path-3"></use>
                </mask>
                <g id="Clip-118"></g>
                <path d="M83.5551,117.4144 L83.2411,117.1134 C77.3841,123.2344 70.5161,128.6464 62.8241,133.1984 C61.1191,134.2074 60.7241,133.9774 60.2701,133.7084 C52.1121,128.9254 45.4251,123.8124 39.8261,118.0754 C28.4321,106.4044 20.4811,92.2134 15.5191,74.6924 C12.2991,63.3254 10.3851,51.0134 9.4941,35.9514 C9.4051,34.4234 10.0221,34.3804 10.6741,34.3344 C17.9121,33.8234 23.9861,30.8354 28.9711,27.9794 C31.4231,26.5764 33.8181,25.0754 36.1351,23.6254 C39.0601,21.7934 41.8221,20.0624 44.7001,18.5014 C48.5691,16.4034 52.6851,14.4654 56.6671,12.5904 C58.1761,11.8804 59.6841,11.1694 61.1871,10.4484 C68.0441,13.1824 75.0751,16.8584 83.5551,22.1314 L83.5551,11.1294 C76.3931,6.9234 70.1081,3.8244 63.8541,1.3874 L63.6051,1.2904 C61.8501,0.3874 59.9331,0.4874 57.8961,1.5914 C56.1571,2.4324 54.4081,3.2554 52.6591,4.0794 C48.5591,6.0094 44.3201,8.0064 40.2161,10.2314 C37.0781,11.9334 34.0601,13.8234 31.1411,15.6514 C28.9021,17.0554 26.5871,18.5044 24.2971,19.8154 C20.0291,22.2604 15.3441,24.5744 10.0111,24.9504 C3.8011,25.3904 -0.2729,30.1414 0.1041,36.5054 C1.0341,52.2674 3.0561,65.2164 6.4671,77.2574 C11.8681,96.3234 20.5781,111.8244 33.0931,124.6474 C39.2871,130.9924 46.6201,136.6114 55.5101,141.8244 C57.2401,142.8374 59.0401,143.3444 60.9011,143.3444 C63.0641,143.3444 65.3081,142.6614 67.6171,141.2944 C73.3681,137.8914 78.6941,134.0304 83.5551,129.7874 L83.5551,117.4144 Z" id="Fill-117" fill="#CF8900" mask="url(#mask-4)"></path>
            </g>
            <polygon id="Fill-120" fill="#2D2A26" points="68.2503 143.2483 29.3783 143.2483 29.3783 136.8963 53.4513 106.5983 31.2193 106.5983 31.2193 98.7873 66.6623 98.7873 66.6623 105.2013 42.3993 135.4363 68.2503 135.4363"></polygon>
            <polygon id="Fill-122" fill="#CF8900" points="66.6067 143.2483 66.6067 98.7873 96.1417 98.7873 96.1417 106.5983 76.4507 106.5983 76.4507 117.5243 93.5377 117.5243 93.5377 125.3363 76.4507 125.3363 76.4507 143.2483"></polygon>
        </g>
    </g>
</svg>