<?xml version="1.0" encoding="UTF-8"?>
<svg viewBox="0 0 266 45" xmlns="http://www.w3.org/2000/svg">
    <g stroke="none" stroke-width="1" fill="none" fill-rule="evenodd">
        <polygon fill="#FFFFFF" points="39 45 0 45 0 38.7138616 24.152269 8.73001057 1.84706215 8.73001057 1.84706215 1 37.4067709 1 37.4067709 7.34749556 13.0638763 37.2689998 39 37.2689998"></polygon>
        <path d="M67,1.24923059 C64.2456536,3.27874037 61.8906957,5.81889405 60.0748075,8.73001057 L46.9989843,8.73001057 L46.9989843,19.5427228 L56.2192795,19.5427228 C56.0745901,20.6747333 56,21.8286559 56,23 C56,24.4542938 56.1149784,25.881733 56.3363408,27.273723 L46.9989843,27.273723 L46.9989843,45 L37,45 L37,1 L67,1 L67,1.24923059 Z" fill="#CF8900"></path>
        <path d="M60,22.5 C60,16.2049861 62.2021991,10.9072022 66.5436775,6.54432133 C70.8851558,2.18144044 76.6737935,0 83.7837508,0 C89.3207086,0 94.6059866,1.86980609 99.6395846,5.60941828 L94.7947465,12.7770083 C91.1453879,10.0969529 87.5589493,8.78808864 84.0983506,8.85041551 C73.4019548,8.85041551 69.7525962,16.3296399 69.7525962,22.6246537 C69.7525962,26.5512465 71.0109957,29.7922438 73.5907147,32.3476454 C76.1075137,34.9030471 79.3793525,36.1495845 83.3433109,36.1495845 C86.5522297,36.1495845 89.2577886,35.5886427 91.4599878,34.5290859 L91.4599878,28.2963989 L80.3231521,28.2963989 L80.3231521,20.567867 L100.583384,20.567867 L100.583384,38.3310249 C95.5497862,42.7562327 89.8240684,45 83.4062309,45 C76.7367135,45 71.1997557,42.8185596 66.7324374,38.3933518 C62.2651191,34.0304709 60,28.732687 60,22.5 Z M107.756261,12.3407202 L116.879658,12.3407202 L116.879658,19.3213296 C118.012217,13.7119114 122.857056,11.468144 125.751374,11.6551247 C126.443494,11.6551247 127.261454,11.7174515 128.142334,11.9044321 L128.142334,21.066482 C126.946854,20.7548476 125.625535,20.6301939 124.178375,20.6301939 C120.340257,20.6301939 117.131338,22.9362881 117.131338,26.9252078 L117.131338,44.3144044 L107.756261,44.3144044 L107.756261,12.3407202 Z M140.474649,28.234072 C140.474649,33.4695291 143.746487,37.4584488 148.780086,37.4584488 C153.624924,37.4584488 157.211362,34.2797784 157.211362,28.732687 C157.211362,22.9362881 153.750764,19.1966759 148.528406,19.1966759 C143.557728,19.1966759 140.474649,23.0609418 140.474649,28.234072 Z M156.959682,16.7036011 L156.959682,12.3407202 L166.334759,12.3407202 L166.334759,44.3144044 L156.959682,44.3144044 L156.959682,39.6398892 C154.442883,43.1925208 151.045205,45 146.829566,45 C142.047648,45 138.20953,43.3795014 135.378131,40.200831 C132.546732,37.0221607 131.099572,32.9709141 131.099572,28.1717452 C131.099572,23.4972299 132.483812,19.5706371 135.252291,16.3919668 C137.95785,13.2132964 141.795968,11.6551247 146.640806,11.6551247 C150.856445,11.6551247 154.694563,13.6495845 156.959682,16.7036011 Z M183.763592,44.3144044 L174.388516,44.3144044 L174.388516,12.3407202 L183.763592,12.3407202 L183.763592,16.7036011 C186.217471,13.3379501 189.55223,11.6551247 193.767868,11.6551247 C201.444105,11.6551247 205.282224,16.765928 205.282224,26.9252078 L205.282224,44.3144044 L195.907147,44.3144044 L195.907147,27.1121884 C195.907147,21.9390582 193.893708,19.3213296 189.92975,19.3213296 C185.839951,19.3213296 183.763592,22.4376731 183.763592,27.1745152 L183.763592,44.3144044 Z M217.299939,4.48753463 L224.535736,4.48753463 L224.535736,12.3407202 L233.470373,12.3407202 L233.470373,19.632964 L224.535736,19.632964 L224.535736,34.5914127 C224.535736,36.4612188 225.353696,37.3961219 226.926695,37.3961219 C228.562615,37.3961219 229.380574,36.398892 229.380574,34.4044321 C229.380574,33.3448753 229.254734,32.4722992 228.940134,31.6620499 L236.364692,31.6620499 C236.868051,32.7216066 237.119731,33.968144 237.119731,35.4639889 C237.119731,40.699446 233.470373,45 226.360415,45 C218.872938,45 215.16066,41.2603878 215.16066,33.7188366 L215.16066,19.632964 L210.315822,19.632964 L210.315822,12.3407202 L215.852779,12.3407202 L217.299939,4.48753463 Z M239.25901,36.8351801 L246.054368,33.033241 C246.872327,36.3365651 249.829566,37.83241 252.849725,37.83241 C255.114844,37.83241 257.065363,36.8975069 257.065363,35.401662 C257.065363,34.3421053 256.247404,33.531856 254.674404,32.9709141 L249.011607,30.6024931 C245.488088,29.3559557 243.034209,27.4238227 242.090409,25.4916898 C241.14661,23.5595568 240.95785,22.5 240.95785,21.4404432 C240.95785,18.3864266 242.153329,15.9556787 244.544288,14.2105263 C246.935247,12.5277008 249.955406,11.6551247 253.604765,11.6551247 C259.015883,11.6551247 262.916921,13.898892 265.24496,18.3864266 L258.009163,21.6897507 C257.317043,19.632964 255.806964,18.6357341 253.416005,18.6357341 C251.591326,18.6357341 249.829566,19.6952909 249.829566,21.2534626 C249.829566,22.3130194 250.836286,23.2479224 252.849725,23.9958449 L257.694563,25.865651 C261.218082,26.8628809 263.734881,28.6080332 264.7416,30.5401662 C265.74832,32.4722992 266,33.6565097 266,35.0900277 C266,38.2063712 264.7416,40.6371191 262.224801,42.3822715 C259.708002,44.1274238 256.562004,45 252.786805,45 C249.829566,45 247.061087,44.3767313 244.544288,43.1301939 C242.027489,41.9459834 240.26573,39.8268698 239.25901,36.8351801 Z" fill="#FFFFFF"></path>
    </g>
</svg>