<?xml version="1.0" encoding="UTF-8"?>
<svg viewBox="0 0 656 139" version="1.1" xmlns="http://www.w3.org/2000/svg" xmlns:xlink="http://www.w3.org/1999/xlink">
    <g id="grant-logo-name" stroke="none" stroke-width="1" fill="none" fill-rule="evenodd">
        <g id="Group-34" transform="translate(0.000000, 0.089000)">
            <path d="M167.865968,133.056065 C169.773318,134.793804 171.796751,136.45683 173.948397,138.056065 L0.2132,138.056065 L0.2132,133.056065 L167.865968,133.056065 Z M215.555918,133.056065 L655.2132,133.056065 L655.2132,138.056065 L209.490433,138.056065 C211.125673,136.825903 212.710759,135.54063 214.242902,134.20267 L215.555918,133.056065 Z" id="Combined-Shape" fill="#CF8A00"></path>
            <path d="M207.1184,117.4878 C203.0494,121.7408 198.2764,125.5018 192.9324,128.6638 C191.7474,129.3648 191.4724,129.2058 191.1574,129.0178 C185.4894,125.6948 180.8424,122.1418 176.9514,118.1558 C169.0354,110.0468 163.5104,100.1848 160.0624,88.0108 C157.8254,80.1128 156.4944,71.5578 155.8764,61.0918 C155.8134,60.0308 156.2434,60.0008 156.6964,59.9688 C161.7244,59.6138 165.9454,57.5378 169.4104,55.5528 C171.1134,54.5778 172.7774,53.5358 174.3884,52.5268 C176.4194,51.2548 178.3384,50.0508 180.3384,48.9668 C183.0274,47.5088 185.8874,46.1628 188.6534,44.8598 C189.7024,44.3668 190.7504,43.8728 191.7944,43.3718 C196.5584,45.2708 201.4444,47.8248 207.3364,51.4888 L207.3364,43.8438 C202.3604,40.9228 197.9934,38.7688 193.6474,37.0758 L193.4744,37.0088 C192.2554,36.3808 190.9234,36.4508 189.5084,37.2168 C188.2994,37.8008 187.0844,38.3738 185.8684,38.9458 C183.0204,40.2878 180.0744,41.6748 177.2224,43.2208 C175.0424,44.4028 172.9454,45.7168 170.9174,46.9868 C169.3614,47.9628 167.7534,48.9688 166.1624,49.8808 C163.1964,51.5788 159.9404,53.1868 156.2354,53.4478 C151.9204,53.7538 149.0894,57.0548 149.3514,61.4768 C149.9974,72.4288 151.4024,81.4258 153.7724,89.7938 C157.5254,103.0418 163.5774,113.8118 172.2744,122.7218 C176.5774,127.1318 181.6724,131.0358 187.8504,134.6578 C189.0514,135.3618 190.3024,135.7138 191.5964,135.7138 C193.0984,135.7138 194.6584,135.2388 196.2624,134.2898 C200.2584,131.9248 203.9594,129.2428 207.3364,126.2938 L207.1184,117.4878 Z" id="Stroke-4" fill="#FF0000"></path>
            <path d="M207.1184,117.4878 C203.0494,121.7408 198.2764,125.5018 192.9324,128.6638 C191.7474,129.3648 191.4724,129.2058 191.1574,129.0178 C185.4894,125.6948 180.8424,122.1418 176.9514,118.1558 C169.0354,110.0468 163.5104,100.1848 160.0624,88.0108 C157.8254,80.1128 156.4944,71.5578 155.8764,61.0918 C155.8134,60.0308 156.2434,60.0008 156.6964,59.9688 C161.7244,59.6138 165.9454,57.5378 169.4104,55.5528 C171.1134,54.5778 172.7774,53.5358 174.3884,52.5268 C176.4194,51.2548 178.3384,50.0508 180.3384,48.9668 C183.0274,47.5088 185.8874,46.1628 188.6534,44.8598 C189.7024,44.3668 190.7504,43.8728 191.7944,43.3718 C196.5584,45.2708 201.4444,47.8248 207.3364,51.4888 L207.3364,43.8438 C202.3604,40.9228 197.9934,38.7688 193.6474,37.0758 L193.4744,37.0088 C192.2554,36.3808 190.9234,36.4508 189.5084,37.2168 C188.2994,37.8008 187.0844,38.3738 185.8684,38.9458 C183.0204,40.2878 180.0744,41.6748 177.2224,43.2208 C175.0424,44.4028 172.9454,45.7168 170.9174,46.9868 C169.3614,47.9628 167.7534,48.9688 166.1624,49.8808 C163.1964,51.5788 159.9404,53.1868 156.2354,53.4478 C151.9204,53.7538 149.0894,57.0548 149.3514,61.4768 C149.9974,72.4288 151.4024,81.4258 153.7724,89.7938 C157.5254,103.0418 163.5774,113.8118 172.2744,122.7218 C176.5774,127.1318 181.6724,131.0358 187.8504,134.6578 C189.0514,135.3618 190.3024,135.7138 191.5964,135.7138 C193.0984,135.7138 194.6584,135.2388 196.2624,134.2898 C200.2584,131.9248 203.9594,129.2428 207.3364,126.2938 L207.1184,117.4878 Z" id="Fill-2" fill="#000000"></path>
            <polygon id="Fill-6" fill="#000000" points="76.1546 121.355 0.2136 121.355 0.2136 108.946 47.2426 49.756 3.8116 49.756 3.8116 34.494 73.0516 34.494 73.0516 47.027 25.6506 106.092 76.1546 106.092"></polygon>
            <polygon id="Fill-8" fill="#CF8A00" points="72.9431 121.355 72.9431 34.494 130.6431 34.494 130.6431 49.756 92.1761 49.756 92.1761 71.099 125.5551 71.099 125.5551 86.363 92.1761 86.363 92.1761 121.355"></polygon>
            <path d="M299.3211,33.9009 C312.3591,33.9009 321.4611,38.3299 330.3171,44.9709 L320.8461,59.1169 C316.1721,55.6719 308.4231,51.2449 299.9361,51.3679 C279.0261,51.3679 271.8921,66.1279 271.8921,78.5499 C271.8921,94.0479 282.8391,105.2419 298.4601,105.2419 C303.7491,105.2419 309.7761,104.2579 314.3271,102.0439 L314.3271,89.7439 L292.5561,89.7439 L292.5561,74.4919 L332.1621,74.4919 L332.1621,109.5469 C319.3701,120.9859 306.4551,122.7079 298.5831,122.7079 C272.1381,122.7079 252.8261,102.6589 252.8261,78.3039 C252.8261,54.3199 270.5391,33.9009 299.3211,33.9009" id="Fill-10" fill="#000000"></path>
            <path d="M364.0174,72.0317 C366.1094,60.5927 375.8264,56.9027 381.3614,56.9027 C383.4524,56.9027 384.0674,57.0257 386.0354,57.3937 L386.0354,75.4747 C383.4524,74.8607 380.1304,74.6147 378.2864,74.6147 C371.3984,74.6147 364.5094,78.6737 364.5094,87.0377 L364.5094,121.3547 L346.1824,121.3547 L346.1824,58.2557 L364.0174,58.2557 L364.0174,72.0317 Z" id="Fill-12" fill="#000000"></path>
            <path d="M425.8855,107.8247 C434.8645,107.8247 442.3675,102.0437 442.3675,90.6047 C442.3675,78.9197 435.3565,71.7857 425.3935,71.7857 C415.3075,71.7857 409.6495,79.9037 409.6495,89.6207 C409.6495,99.7067 415.7995,107.8247 425.8855,107.8247 L425.8855,107.8247 Z M460.2025,58.2557 L460.2025,121.3547 L441.8755,121.3547 L441.8755,112.1307 C437.3245,118.6487 431.2975,122.7077 422.0725,122.7077 C402.8845,122.7077 391.3225,107.9477 391.3225,89.4977 C391.3225,71.7857 402.0235,56.9027 421.7035,56.9027 C430.1905,56.9027 437.5715,61.0847 441.8755,66.8657 L441.8755,58.2557 L460.2025,58.2557 Z" id="Fill-14" fill="#000000"></path>
            <path d="M475.9451,58.2554 L494.2721,58.2554 L494.2721,66.8654 C499.5611,59.4854 506.2031,56.9024 513.8291,56.9024 C531.5421,56.9024 536.3391,71.0474 536.3391,87.0374 L536.3391,121.3554 L518.0111,121.3554 L518.0111,87.4064 C518.0111,78.6734 514.8131,72.0314 506.3261,72.0314 C497.8391,72.0314 494.2721,78.7964 494.2721,87.5294 L494.2721,121.3554 L475.9451,121.3554 L475.9451,58.2554 Z" id="Fill-16" fill="#000000"></path>
            <path d="M573.2371,58.2554 L590.7031,58.2554 L590.7031,72.6474 L573.2371,72.6474 L573.2371,102.1664 C573.2371,104.8724 574.3441,107.7014 577.9111,107.7014 C581.4781,107.7014 582.7091,104.7494 582.7091,101.7974 C582.7091,99.9524 582.2161,97.3694 581.8471,96.3864 L596.3611,96.3864 C597.4681,98.7234 597.8381,101.6754 597.8381,103.8894 C597.8381,113.2364 591.6871,122.7074 576.8041,122.7074 C565.7341,122.7074 554.9101,118.7724 554.9101,100.4444 L554.9101,72.6474 L545.4391,72.6474 L545.4391,58.2554 L556.2631,58.2554 L559.0921,42.7574 L573.2371,42.7574 L573.2371,58.2554 Z" id="Fill-18" fill="#000000"></path>
            <path d="M615.3025,99.0913 C617.1475,106.3493 623.5435,108.5633 628.5865,108.5633 C632.6455,108.5633 636.8275,106.9633 636.8275,103.7663 C636.8275,101.6753 635.5975,100.1983 632.1545,98.9693 L621.0835,94.2943 C606.0775,89.0053 605.3395,79.0423 605.3395,76.2133 C605.3395,63.5443 616.5325,56.9033 630.0625,56.9033 C637.3205,56.9033 646.9135,58.8703 652.8185,70.1873 L638.6725,76.7053 C637.0735,71.6623 632.5225,70.6783 629.6945,70.6783 C626.2495,70.6783 622.6825,72.6473 622.6825,75.8443 C622.6825,78.5503 625.3885,80.0273 628.5865,81.2563 L638.0575,84.9463 C652.9415,89.2513 654.2935,98.9693 654.2935,103.1513 C654.2935,116.0663 642.3635,122.7073 628.4635,122.7073 C619.1155,122.7073 606.3235,119.7563 602.0185,106.5953 L615.3025,99.0913 Z" id="Fill-20" fill="#000000"></path>
            <path d="M162.7156,43.8618 C164.2086,43.0068 165.7466,42.0428 167.2336,41.1108 C169.2056,39.8748 171.2456,38.6038 173.4316,37.3958 L173.4756,31.9548 C173.5176,26.7528 175.4906,21.8898 179.0326,18.2648 C182.5106,14.7058 187.1146,12.7928 191.9376,12.8108 C202.0356,12.8988 210.1806,21.6348 210.0946,32.2838 L210.0536,37.4068 C212.0626,38.5688 214.1476,39.8348 216.3656,41.2488 C218.4956,42.6068 220.4006,43.7758 222.2136,44.6918 L222.3126,32.3828 C222.4536,15.0008 208.8746,0.7388 192.0446,0.5928 C183.7956,0.4918 176.1176,3.7638 170.2936,9.7248 C164.5346,15.6208 161.3246,23.4798 161.2576,31.8558 L161.1556,44.4878 L161.5816,44.4918 C161.9516,44.2918 162.3276,44.0838 162.7156,43.8618" id="Fill-22" fill="#000000"></path>
            <path d="M227.9856,53.604 C222.9546,53.195 218.7026,50.904 213.8736,47.875 L213.8736,55.496 C218.1106,57.9 222.3716,59.698 227.3756,60.082 C227.4276,60.129 227.6316,60.457 227.5926,61.077 C227.4506,63.344 227.2956,65.374 227.1186,67.282 C226.0906,78.333 223.9576,87.807 220.5966,96.242 C218.7636,100.84 216.5066,105.108 213.8736,109.036 L213.8736,119.774 C219.2046,113.684 223.5056,106.6 226.6696,98.662 C230.2656,89.636 232.5416,79.57 233.6276,67.886 C233.8116,65.913 233.9706,63.819 234.1166,61.484 C234.3776,57.298 231.7416,53.911 227.9856,53.604" id="Fill-24" fill="#000000"></path>
            <path d="M227.9856,53.604 C222.9546,53.195 218.7026,50.904 213.8736,47.875 L213.8736,55.496 C218.1106,57.9 222.3716,59.698 227.3756,60.082 C227.4276,60.129 227.6316,60.457 227.5926,61.077 C227.4506,63.344 227.2956,65.374 227.1186,67.282 C226.0906,78.333 223.9576,87.807 220.5966,96.242 C218.7636,100.84 216.5066,105.108 213.8736,109.036 L213.8736,119.774 C219.2046,113.684 223.5056,106.6 226.6696,98.662 C230.2656,89.636 232.5416,79.57 233.6276,67.886 C233.8116,65.913 233.9706,63.819 234.1166,61.484 C234.3776,57.298 231.7416,53.911 227.9856,53.604 Z" id="Stroke-26" stroke="#000000" stroke-width="3.329"></path>
            <path d="M207.3367,117.2476 C207.2627,117.3256 207.1927,117.4096 207.1187,117.4876 L207.3367,117.6966 L207.3367,117.2476 Z" id="Fill-28" fill="#3A3A3A"></path>
            <path d="M207.1184,117.4878 C203.0494,121.7408 198.2764,125.5018 192.9324,128.6638 C191.7474,129.3648 191.4724,129.2058 191.1574,129.0178 C185.4894,125.6948 180.8424,122.1418 176.9514,118.1558 C169.0354,110.0468 163.5104,100.1848 160.0624,88.0108 C157.8254,80.1128 156.4944,71.5578 155.8764,61.0918 C155.8134,60.0308 156.2434,60.0008 156.6964,59.9688 C161.7244,59.6138 165.9454,57.5378 169.4104,55.5528 C171.1134,54.5778 172.7774,53.5358 174.3884,52.5268 C176.4194,51.2548 178.3384,50.0508 180.3384,48.9668 C183.0274,47.5088 185.8874,46.1628 188.6534,44.8598 C189.7024,44.3668 190.7504,43.8728 191.7944,43.3718 C196.5584,45.2708 201.4444,47.8248 207.3364,51.4888 L207.3364,43.8438 C202.3604,40.9228 197.9934,38.7688 193.6474,37.0758 L193.4744,37.0088 C192.2554,36.3808 190.9234,36.4508 189.5084,37.2168 C188.2994,37.8008 187.0844,38.3738 185.8684,38.9458 C183.0204,40.2878 180.0744,41.6748 177.2224,43.2208 C175.0424,44.4028 172.9454,45.7168 170.9174,46.9868 C169.3614,47.9628 167.7534,48.9688 166.1624,49.8808 C163.1964,51.5788 159.9404,53.1868 156.2354,53.4478 C151.9204,53.7538 149.0894,57.0548 149.3514,61.4768 C149.9974,72.4288 151.4024,81.4258 153.7724,89.7938 C157.5254,103.0418 163.5774,113.8118 172.2744,122.7218 C176.5774,127.1318 181.6724,131.0358 187.8504,134.6578 C189.0514,135.3618 190.3024,135.7138 191.5964,135.7138 C193.0984,135.7138 194.6584,135.2388 196.2624,134.2898 C200.2584,131.9248 203.9594,129.2428 207.3364,126.2938 L207.1184,117.4878 Z" id="Fill-30" fill="#CF8A00"></path>
            <path d="M207.1184,117.4878 C203.0494,121.7408 198.2764,125.5018 192.9324,128.6638 C191.7474,129.3648 191.4724,129.2058 191.1574,129.0178 C185.4894,125.6948 180.8424,122.1418 176.9514,118.1558 C169.0354,110.0468 163.5104,100.1848 160.0624,88.0108 C157.8254,80.1128 156.4944,71.5578 155.8764,61.0918 C155.8134,60.0308 156.2434,60.0008 156.6964,59.9688 C161.7244,59.6138 165.9454,57.5378 169.4104,55.5528 C171.1134,54.5778 172.7774,53.5358 174.3884,52.5268 C176.4194,51.2548 178.3384,50.0508 180.3384,48.9668 C183.0274,47.5088 185.8874,46.1628 188.6534,44.8598 C189.7024,44.3668 190.7504,43.8728 191.7944,43.3718 C196.5584,45.2708 201.4444,47.8248 207.3364,51.4888 L207.3364,43.8438 C202.3604,40.9228 197.9934,38.7688 193.6474,37.0758 L193.4744,37.0088 C192.2554,36.3808 190.9234,36.4508 189.5084,37.2168 C188.2994,37.8008 187.0844,38.3738 185.8684,38.9458 C183.0204,40.2878 180.0744,41.6748 177.2224,43.2208 C175.0424,44.4028 172.9454,45.7168 170.9174,46.9868 C169.3614,47.9628 167.7534,48.9688 166.1624,49.8808 C163.1964,51.5788 159.9404,53.1868 156.2354,53.4478 C151.9204,53.7538 149.0894,57.0548 149.3514,61.4768 C149.9974,72.4288 151.4024,81.4258 153.7724,89.7938 C157.5254,103.0418 163.5774,113.8118 172.2744,122.7218 C176.5774,127.1318 181.6724,131.0358 187.8504,134.6578 C189.0514,135.3618 190.3024,135.7138 191.5964,135.7138 C193.0984,135.7138 194.6584,135.2388 196.2624,134.2898 C200.2584,131.9248 203.9594,129.2428 207.3364,126.2938 L207.1184,117.4878 Z" id="Stroke-32" stroke="#CF8A00" stroke-width="3.329"></path>
        </g>
    </g>
</svg>