<?xml version="1.0" encoding="UTF-8"?>
<svg viewBox="0 0 15 264" version="1.1" xmlns="http://www.w3.org/2000/svg" xmlns:xlink="http://www.w3.org/1999/xlink">
    <!-- Generator: Sketch 49.3 (51167) - http://www.bohemiancoding.com/sketch -->
    <title>Rocket</title>
    <desc>Created with Sketch.</desc>
    <defs>
        <linearGradient x1="50%" y1="100%" x2="50%" y2="3.061617e-15%" id="linearGradient-1">
            <stop stop-color="#CF8A00" stop-opacity="0" offset="0%"></stop>
            <stop stop-color="#CF8A00" stop-opacity="0.15" offset="100%"></stop>
        </linearGradient>
        <linearGradient x1="50%" y1="0%" x2="50%" y2="100%" id="linearGradient-2">
            <stop stop-color="#CF8A00" stop-opacity="0.2" offset="0%"></stop>
            <stop stop-color="#CF8A00" stop-opacity="0" offset="100%"></stop>
        </linearGradient>
        <linearGradient x1="50%" y1="0%" x2="50%" y2="100%" id="linearGradient-3">
            <stop stop-color="#EEEEEE" offset="0%"></stop>
            <stop stop-color="#D8D8D8" offset="100%"></stop>
        </linearGradient>
    </defs>
    <g id="Rocket" stroke="none" stroke-width="1" fill="none" fill-rule="evenodd">
        <g transform="translate(0.934289, 0.434289)">
            <g id="Trail" transform="translate(0.000000, 30.000000)">
                <path d="M7,233 C10.8659932,233 14,49.656808 14,24.828404 C14,0 10.8659932,0 7,0 C3.13400675,0 0,0 0,24.828404 C9.13485745e-17,49.656808 3.13400675,233 7,233 Z" id="Oval-3" fill="url(#linearGradient-1)"></path>
                <path d="M7,97 C8.38071187,97 9.5,23.0332187 9.5,13.0166093 C9.5,3 8.38071187,3 7,3 C5.61928813,3 4.5,3 4.5,13.0166093 C4.5,23.0332187 5.61928813,97 7,97 Z" id="Oval-3" fill="url(#linearGradient-2)"></path>
            </g>
            <g id="Ship" transform="translate(0.800049, 0.000000)">
                <path d="M6.5,24.1269531 C9.53756612,24.1269531 12,29.410443 12,18.9465515 C12,8.48266004 9.53756612,0 6.5,0 C3.46243388,0 1,8.48266004 1,18.9465515 C1,29.410443 3.46243388,24.1269531 6.5,24.1269531 Z" id="Oval-4" fill="url(#linearGradient-3)"></path>
                <ellipse id="Oval-5" fill="#C2C2C2" cx="11" cy="20.5" rx="2" ry="5.5"></ellipse>
                <ellipse id="Oval-5" fill="#C2C2C2" cx="2" cy="20.5" rx="2" ry="5.5"></ellipse>
            </g>
        </g>
    </g>
</svg>