<?xml version="1.0" encoding="UTF-8"?>
<svg viewBox="0 0 154 197" version="1.1" xmlns="http://www.w3.org/2000/svg" xmlns:xlink="http://www.w3.org/1999/xlink">
    <!-- Generator: Sketch 49.3 (51167) - http://www.bohemiancoding.com/sketch -->
    <title>Artboard</title>
    <desc>Created with Sketch.</desc>
    <defs></defs>
    <g id="Artboard" stroke="none" stroke-width="1" fill="none" fill-rule="evenodd">
        <path d="M34.5068,63.5988 C36.6718,62.3588 38.8998,60.9618 41.0558,59.6108 C43.9138,57.8198 46.8708,55.9788 50.0388,54.2278 L50.1028,46.3408 C50.1638,38.7998 53.0248,31.7528 58.1588,26.4978 C63.1998,21.3388 69.8718,18.5658 76.8618,18.5928 C91.4988,18.7198 103.3048,31.3828 103.1808,46.8168 L103.1208,54.2428 C106.0318,55.9278 109.0548,57.7618 112.2698,59.8118 C115.3578,61.7798 118.1178,63.4738 120.7458,64.8018 L120.8898,46.9618 C121.0938,21.7658 101.4118,1.0948 77.0168,0.8838 C65.0608,0.7358 53.9318,5.4798 45.4908,14.1208 C37.1428,22.6658 32.4908,34.0568 32.3928,46.1978 L32.2458,64.5068 L32.8628,64.5118 C33.3998,64.2218 33.9448,63.9208 34.5068,63.5988" id="Fill-46" fill="#2D2A26"></path>
        <path d="M78.3041,186.5145 C76.5871,187.5305 76.1891,187.2985 75.7311,187.0275 C67.5161,182.2105 60.7811,177.0615 55.1421,171.2835 C48.4661,164.4455 42.9731,156.7405 38.5541,148.0255 L38.5451,148.0295 C37.6721,146.6625 36.5341,145.7055 35.2561,145.3345 L32.8731,145.3345 C32.7631,145.3655 32.6531,145.3965 32.5431,145.4355 C30.1061,146.3055 28.8381,148.9995 29.6831,151.4795 C34.5991,161.3885 40.7831,170.1375 48.3611,177.9025 C54.5991,184.2925 61.9841,189.9525 70.9381,195.2025 C72.6801,196.2225 74.4931,196.7325 76.3671,196.7325 C78.5461,196.7325 80.8061,196.0445 83.1311,194.6685 C88.9231,191.2405 94.2881,187.3525 99.1831,183.0785 L99.1831,170.6175 L98.8671,170.3145 C92.9681,176.4795 86.0501,181.9295 78.3041,186.5145" id="Fill-48" fill="#CF8900"></path>
        <path d="M79.3413,53.7624 L79.0913,53.6644 C77.3233,52.7554 75.3923,52.8554 73.3413,53.9674 C71.5893,54.8144 69.8283,55.6444 68.0663,56.4734 C63.9373,58.4174 59.6673,60.4294 55.5343,62.6704 C52.3733,64.3834 49.3343,66.2874 46.3953,68.1284 C44.1393,69.5424 41.8083,71.0014 39.5023,72.3224 C35.2033,74.7844 30.4853,77.1154 25.1143,77.4934 C18.8603,77.9364 14.7573,82.7214 15.1363,89.1314 C15.6903,98.5174 16.6323,106.9074 18.0163,114.7094 C18.6323,117.3144 20.2863,119.1174 22.7693,119.1174 C25.3813,119.1174 27.4983,116.9674 27.4983,114.3154 C27.4983,114.1054 27.4763,113.8454 27.4413,113.5904 C27.4083,113.4024 27.3743,113.2124 27.3413,113.0234 C27.3333,112.9914 27.3273,112.9534 27.3203,112.9234 L27.3233,112.9234 C26.0153,105.5214 25.1233,97.5324 24.5943,88.5734 C24.5033,87.0344 25.1253,86.9914 25.7813,86.9444 C33.0713,86.4294 39.1883,83.4204 44.2093,80.5444 C46.6783,79.1314 49.0913,77.6204 51.4253,76.1594 C54.3703,74.3144 57.1513,72.5704 60.0503,70.9984 C63.9473,68.8854 68.0933,66.9334 72.1023,65.0454 C73.6223,64.3304 75.1423,63.6154 76.6553,62.8884 C83.5603,65.6424 90.6423,69.3434 99.1833,74.6534 L99.1833,63.5734 C91.9693,59.3384 85.6403,56.2164 79.3413,53.7624" id="Fill-50" fill="#CF8900"></path>
        <path d="M128.5428,88.5505 C128.3368,91.8375 128.1128,94.7785 127.8558,97.5445 C127.3558,102.9205 126.6708,108.0325 125.8028,112.9225 L125.8118,112.9235 C125.7908,113.0075 125.7708,113.1065 125.7518,113.2075 C125.7468,113.2355 125.7418,113.2635 125.7368,113.2905 C125.6778,113.6305 125.6348,114.0215 125.6348,114.3155 C125.6348,116.9675 127.7518,119.1175 130.3628,119.1175 C132.8188,119.1175 134.4618,117.3535 135.0928,114.7945 C136.0248,109.5795 136.7578,104.1365 137.2888,98.4205 C137.5558,95.5605 137.7878,92.5255 137.9988,89.1405 C138.3768,83.0745 134.5568,78.1645 129.1118,77.7195 C121.8198,77.1265 115.6568,73.8055 108.6578,69.4165 L108.6578,80.4605 C114.7988,83.9465 120.9738,86.5525 128.2278,87.1085 C128.3038,87.1775 128.5988,87.6525 128.5428,88.5505" id="Fill-52" fill="#2D2A26"></path>
        <path d="M120.5892,145.4355 C120.4782,145.3965 120.3682,145.3655 120.2592,145.3345 L117.8752,145.3345 C116.5972,145.7055 115.4592,146.6625 114.5872,148.0295 L114.5492,148.0095 C112.7632,151.5125 110.7992,154.8685 108.6572,158.0645 L108.6572,173.6295 C114.4632,166.9965 119.4272,159.5495 123.4802,151.3745 C124.2552,148.9245 122.9922,146.2925 120.5892,145.4355" id="Fill-54" fill="#2D2A26"></path>
        <polygon id="Fill-56" fill="#CF8900" points="0.6151 140.1086 0.6151 120.9346 13.3521 120.9346 13.3521 124.3036 4.8611 124.3036 4.8611 129.0146 12.2291 129.0146 12.2291 132.3836 4.8611 132.3836 4.8611 140.1086"></polygon>
        <path d="M22.2813,136.9039 C24.3083,136.9039 26.0343,135.2599 26.0343,133.0689 C26.0343,130.9049 24.3083,129.2609 22.2813,129.2609 C20.2823,129.2609 18.5283,130.8779 18.5283,133.0689 C18.5283,135.2879 20.2823,136.9039 22.2813,136.9039 M22.2813,125.7549 C26.3903,125.7549 30.0063,128.7139 30.0063,133.0689 C30.0063,137.4519 26.3903,140.4099 22.2813,140.4099 C18.1993,140.4099 14.5563,137.4789 14.5563,133.0689 C14.5563,128.6859 18.1993,125.7549 22.2813,125.7549" id="Fill-58" fill="#CF8900"></path>
        <path d="M45.919,140.1086 L41.838,140.1086 L41.838,138.1916 C40.66,139.8346 39.181,140.4096 37.483,140.4096 C33.538,140.4096 32.47,137.2596 32.47,133.6996 L32.47,126.0566 L36.551,126.0566 L36.551,133.6166 C36.551,135.5616 37.264,137.0406 39.154,137.0406 C41.044,137.0406 41.838,135.5336 41.838,133.5896 L41.838,126.0566 L45.919,126.0566 L45.919,140.1086 Z" id="Fill-60" fill="#CF8900"></path>
        <path d="M49.4516,126.0565 L53.5336,126.0565 L53.5336,127.9735 C54.7106,126.3305 56.1896,125.7545 57.8876,125.7545 C61.8326,125.7545 62.9006,128.9055 62.9006,132.4665 L62.9006,140.1085 L58.8196,140.1085 L58.8196,132.5485 C58.8196,130.6035 58.1076,129.1245 56.2176,129.1245 C54.3276,129.1245 53.5336,130.6315 53.5336,132.5755 L53.5336,140.1085 L49.4516,140.1085 L49.4516,126.0565 Z" id="Fill-62" fill="#CF8900"></path>
        <path d="M73.1168,137.0953 C75.1158,137.0953 76.7878,135.8083 76.7878,133.2613 C76.7878,130.6583 75.2258,129.0693 73.0068,129.0693 C70.7608,129.0693 69.5018,130.8773 69.5018,133.0413 C69.5018,135.2883 70.8708,137.0953 73.1168,137.0953 Z M80.7588,120.3043 L80.7588,140.1083 L76.6778,140.1083 L76.6778,138.0543 C75.6648,139.5053 74.3218,140.4103 72.2678,140.4103 C67.9948,140.4103 65.4198,137.1233 65.4198,133.0143 C65.4198,129.0693 67.8028,125.7553 72.1858,125.7553 C74.0758,125.7553 75.7188,126.6873 76.6778,127.9743 L76.6778,120.3043 L80.7588,120.3043 Z" id="Fill-64" fill="#CF8900"></path>
        <path d="M91.1669,137.0953 C93.1659,137.0953 94.8379,135.8083 94.8379,133.2613 C94.8379,130.6583 93.2759,129.0693 91.0569,129.0693 C88.8109,129.0693 87.5519,130.8773 87.5519,133.0413 C87.5519,135.2883 88.9209,137.0953 91.1669,137.0953 Z M98.8089,126.0563 L98.8089,140.1083 L94.7279,140.1083 L94.7279,138.0543 C93.7149,139.5053 92.3719,140.4103 90.3179,140.4103 C86.0449,140.4103 83.4699,137.1233 83.4699,133.0143 C83.4699,129.0693 85.8529,125.7553 90.2359,125.7553 C92.1259,125.7553 93.7689,126.6873 94.7279,127.9743 L94.7279,126.0563 L98.8089,126.0563 Z" id="Fill-66" fill="#CF8900"></path>
        <path d="M107.354,126.0565 L111.244,126.0565 L111.244,129.2615 L107.354,129.2615 L107.354,135.8355 C107.354,136.4375 107.6,137.0685 108.395,137.0685 C109.189,137.0685 109.463,136.4105 109.463,135.7525 C109.463,135.3425 109.353,134.7675 109.271,134.5475 L112.503,134.5475 C112.75,135.0685 112.832,135.7265 112.832,136.2195 C112.832,138.3005 111.462,140.4095 108.148,140.4095 C105.683,140.4095 103.272,139.5335 103.272,135.4515 L103.272,129.2615 L101.163,129.2615 L101.163,126.0565 L103.574,126.0565 L104.204,122.6055 L107.354,122.6055 L107.354,126.0565 Z" id="Fill-68" fill="#CF8900"></path>
        <path d="M114.913,140.108 L118.994,140.108 L118.994,126.056 L114.913,126.056 L114.913,140.108 Z M116.994,120.003 C118.446,120.003 119.597,120.962 119.597,122.332 C119.597,123.674 118.446,124.605 116.994,124.605 C115.516,124.605 114.42,123.674 114.42,122.332 C114.42,120.962 115.516,120.003 116.994,120.003 Z" id="Fill-70" fill="#CF8900"></path>
        <path d="M129.4021,136.9039 C131.4291,136.9039 133.1551,135.2599 133.1551,133.0689 C133.1551,130.9049 131.4291,129.2609 129.4021,129.2609 C127.4031,129.2609 125.6491,130.8779 125.6491,133.0689 C125.6491,135.2879 127.4031,136.9039 129.4021,136.9039 M129.4021,125.7549 C133.5111,125.7549 137.1271,128.7139 137.1271,133.0689 C137.1271,137.4519 133.5111,140.4099 129.4021,140.4099 C125.3201,140.4099 121.6771,137.4789 121.6771,133.0689 C121.6771,128.6859 125.3201,125.7549 129.4021,125.7549" id="Fill-72" fill="#CF8900"></path>
        <path d="M139.7551,126.0565 L143.8371,126.0565 L143.8371,127.9735 C145.0141,126.3305 146.4931,125.7545 148.1911,125.7545 C152.1361,125.7545 153.2041,128.9055 153.2041,132.4665 L153.2041,140.1085 L149.1231,140.1085 L149.1231,132.5485 C149.1231,130.6035 148.4111,129.1245 146.5211,129.1245 C144.6311,129.1245 143.8371,130.6315 143.8371,132.5755 L143.8371,140.1085 L139.7551,140.1085 L139.7551,126.0565 Z" id="Fill-73" fill="#CF8900"></path>
        <polygon id="Fill-74" fill="#000000" points="53.5601 113.1209 36.7961 113.1209 36.7961 110.3819 47.1771 97.3159 37.5911 97.3159 37.5911 93.9469 52.8751 93.9469 52.8751 96.7129 42.4111 109.7519 53.5601 109.7519"></polygon>
        <path d="M62.9268,98.7677 C64.3788,98.7677 66.2688,99.0687 68.6788,100.8497 L66.8168,103.8357 C65.4468,102.6027 63.8308,102.4377 63.1188,102.4377 C60.7358,102.4377 59.1468,103.9447 59.1468,106.0817 C59.1468,108.2177 60.7358,109.7247 63.1188,109.7247 C63.8308,109.7247 65.4468,109.5597 66.8168,108.3277 L68.6788,111.3137 C66.2688,113.0937 64.3788,113.3947 62.9268,113.3947 C58.1058,113.3947 55.0658,110.2447 55.0658,106.0817 C55.0658,101.9177 58.1058,98.7677 62.9268,98.7677" id="Fill-75" fill="#000000"></path>
        <path d="M77.7447,110.1079 C79.7437,110.1079 81.4157,108.8209 81.4157,106.2729 C81.4157,103.6709 79.8537,102.0819 77.6347,102.0819 C75.3887,102.0819 74.1297,103.8899 74.1297,106.0539 C74.1297,108.2999 75.4987,110.1079 77.7447,110.1079 Z M85.3867,99.0689 L85.3867,113.1209 L81.3057,113.1209 L81.3057,111.0669 C80.2927,112.5179 78.9497,113.4219 76.8957,113.4219 C72.6227,113.4219 70.0477,110.1349 70.0477,106.0259 C70.0477,102.0819 72.4307,98.7679 76.8137,98.7679 C78.7037,98.7679 80.3467,99.6989 81.3057,100.9859 L81.3057,99.0689 L85.3867,99.0689 Z" id="Fill-76" fill="#000000"></path>
        <path d="M90.754,108.1631 C91.165,109.7791 92.59,110.2721 93.712,110.2721 C94.617,110.2721 95.548,109.9161 95.548,109.2041 C95.548,108.7381 95.274,108.4091 94.507,108.1351 L92.042,107.0951 C88.699,105.9171 88.536,103.6981 88.536,103.0681 C88.536,100.2471 91.028,98.7681 94.041,98.7681 C95.657,98.7681 97.794,99.2061 99.108,101.7261 L95.959,103.1771 C95.602,102.0541 94.589,101.8351 93.959,101.8351 C93.192,101.8351 92.398,102.2741 92.398,102.9861 C92.398,103.5881 93.001,103.9171 93.712,104.1911 L95.822,105.0131 C99.136,105.9721 99.437,108.1351 99.437,109.0671 C99.437,111.9431 96.78,113.4221 93.685,113.4221 C91.603,113.4221 88.755,112.7651 87.796,109.8341 L90.754,108.1631 Z" id="Fill-77" fill="#000000"></path>
        <path d="M102.0932,93.3168 L106.1752,93.3168 L106.1752,100.9858 C107.3522,99.3428 108.8312,98.7678 110.5292,98.7678 C114.4742,98.7678 115.5422,101.9178 115.5422,105.4788 L115.5422,113.1208 L111.4612,113.1208 L111.4612,105.5608 C111.4612,103.6158 110.7492,102.1368 108.8592,102.1368 C106.9692,102.1368 106.1752,103.6438 106.1752,105.5888 L106.1752,113.1208 L102.0932,113.1208 L102.0932,93.3168 Z" id="Fill-78" fill="#000000"></path>
    </g>
</svg>