<?xml version="1.0" encoding="utf-8"?>
<!-- Generator: Adobe Illustrator 25.0.0, SVG Export Plug-In . SVG Version: 6.00 Build 0)  -->
<svg version="1.1" xmlns="http://www.w3.org/2000/svg" xmlns:xlink="http://www.w3.org/1999/xlink" x="0px" y="0px"
	 viewBox="0 0 1300.8 419.2" style="enable-background:new 0 0 1300.8 419.2;" xml:space="preserve">
<style type="text/css">
	.st0{display:none;}
	.st1{display:inline;fill:#100400;}
	.st2{fill-rule:evenodd;clip-rule:evenodd;fill:#FFFFFF;}
	.st3{fill-rule:evenodd;clip-rule:evenodd;fill:#0F7000;}
	.st4{fill:#FFFFFF;}
	.st5{fill:#F8BB14;}
	.st6{fill:none;stroke:#FFFFFF;stroke-width:24.24;stroke-linecap:round;stroke-linejoin:round;stroke-miterlimit:1.5;}
	.st7{font-family:'Roboto-Medium';}
	.st8{font-size:304.0703px;}
</style>
<g id="Layer_2" class="st0">
	<rect x="-102.5" y="-82" class="st1" width="1515.7" height="567.6"/>
</g>
<g id="Layer_1" xmlns:serif="http://www.serif.com/">
	<g>
		<g transform="matrix(0.347046,-4.1523e-17,-1.03807e-17,0.347046,307.53,12.3394)">
			<g id="Color">
				<g>
					<g id="Color1" transform="matrix(1.09544,1.31066e-16,3.27664e-17,1.09544,-953.204,-33.2755)" serif:id="Color">
						<g transform="matrix(1.19303,-3.26522e-48,2.90837e-48,1.06265,-101.088,-115.302)">
							<rect x="572.7" y="564.3" class="st2" width="37.4" height="265.4"/>
						</g>
						<g transform="matrix(1,-2.73691e-48,2.73691e-48,1,0,-21.0434)">
							<path class="st3" d="M970,472.4c-7.7-25.6-24.4,55.7-167.7,79.1c-112.6,18.3-168.6,129.2-148.5,161.9
								c13.1,21.4,111.2,52.7,194.7-8.3C931.7,644.3,977.7,498,970,472.4z M651.6,707c3,5.4,78.8-15.7,123.6-40.6
								c52.8-29.3,108.9-79.9,104.4-85.7c-2.9-3.8-63.8,23.9-123.7,57.7C704.1,667.6,646.4,697.7,651.6,707z"/>
						</g>
						<g transform="matrix(1,-2.73691e-48,2.73691e-48,1,0,-21.0434)">
							<path class="st3" d="M295.5,443.5C308,424.7,306.9,490,436.7,528c102,29.9,131.7,123.6,106.1,146.1
								c-16.7,14.7-115.4,25.3-181.2-33.5C295.9,581.9,283,462.2,295.5,443.5z M544.7,672c-2.8,3.9-52.5-14.7-91.1-39
								c-30-19-76.9-55.4-64.6-63.8c5.6-3.8,41.1,21,77.6,44.2C504.4,637.4,550.2,664.4,544.7,672z"/>
						</g>
						<g transform="matrix(0.927915,-1.11022e-16,-2.77556e-17,0.927915,854.005,46.6736)">
							<g transform="matrix(1,0,0,1,-581.95,-44.2319)">
								<path class="st4" d="M312.2,514.8c-131.2,0-238-106.8-238-238c0-131.2,106.8-238,238-238c131.2,0,238,106.8,238,238
									C550.2,408,443.4,514.8,312.2,514.8z M312.2-8.3C155-8.3,27.1,119.6,27.1,276.8S155,561.9,312.2,561.9
									S597.3,434,597.3,276.8S469.4-8.3,312.2-8.3z"/>
							</g>
							<path class="st5" d="M-269.8,7.8c-123.9,0-224.7,100.8-224.7,224.7c0,123.9,100.8,224.7,224.7,224.7S-45.1,356.4-45.1,232.5
								C-45.1,108.6-145.9,7.8-269.8,7.8z M-168.1,143.7l-22,27.9l-98.6,135.7h120.6v57.6h-77.8v47.6h-5.7v0.2h-36.3v-0.2h-5.7
								v-47.6h-77.8v-43.5l22-27.9l98.6-135.7h-120.6v-57.6h77.8V52.5h47.8v47.7h77.8V143.7z"/>
						</g>
					</g>
					<g id="Hand" transform="matrix(1.23479,1.47739e-16,3.95e-17,1.32055,-1023.9,-346.117)">
						<path class="st6" d="M139.9,880c0,0,93-1.5,138.8-9.1c48.9-8.1,105.2-39.7,154.8-39.4c49.5,0.3,87.5,32.1,142.6,41.4
							c59,10,156.2,9.9,180.2,27.8c19.8,14.7,5.2,49.9-32.8,64c-26,9.7-73.4,19.4-110.9,19.1c-53.6-0.5-217.9-23.2-210.9-21.8
							c7,1.4,168.5,39.2,252.9,30.2c84.8-9,192.9-67.4,256.1-84.4c40-10.7,92.5-19.5,123.1-17.3c38.6,2.8,64,22.1,47.7,32.5
							c-57.7,36.8-263.6,156-393.9,188.1c-86.5,21.3-273,9.5-313,4.2c-60.9-8-98.3-24.4-139.4-53.2c-23.7-16.6-95.3-45.2-95.3-45.2
							V880z"/>
					</g>
					<g transform="matrix(121.473,1.45339e-14,3.31689e-15,110.889,-21599.6,-106761)">
						<text transform="matrix(2.598518e-02 0 0 2.598510e-02 181.6097 969.9001)" class="st4 st7 st8">zomg</text>
					</g>
				</g>
			</g>
		</g>
	</g>
</g>
</svg>
